<svg width="137" height="26" viewBox="0 0 137 26" fill="none" xmlns="http://www.w3.org/2000/svg">
<path d="M11.8882 8.73206V12.472V13.9669V17.7068H15.0393V13.9669V12.472V8.73206H11.8882Z" fill="#FAB908"/>
<path d="M2.43532 13.9211C3.3057 13.9211 4.01127 13.2303 4.01127 12.3781C4.01127 11.526 3.3057 10.8352 2.43532 10.8352C1.56495 10.8352 0.859375 11.526 0.859375 12.3781C0.859375 13.2303 1.56495 13.9211 2.43532 13.9211Z" fill="#0066D9"/>
<path d="M2.43532 15.6039C3.3057 15.6039 4.01127 14.9132 4.01127 14.061C4.01127 13.2089 3.3057 12.5181 2.43532 12.5181C1.56495 12.5181 0.859375 13.2089 0.859375 14.061C0.859375 14.9132 1.56495 15.6039 2.43532 15.6039Z" fill="#0066D9"/>
<path d="M4.01127 12.3779H0.859375V14.0611H4.01127V12.3779Z" fill="#0066D9"/>
<path d="M24.4924 15.6039C25.3629 15.6039 26.0684 14.9132 26.0684 14.061C26.0684 13.2089 25.3629 12.5181 24.4924 12.5181C23.6221 12.5181 22.9165 13.2089 22.9165 14.061C22.9165 14.9132 23.6221 15.6039 24.4924 15.6039Z" fill="#4285F4"/>
<path d="M24.4924 13.9211C25.3629 13.9211 26.0684 13.2303 26.0684 12.3781C26.0684 11.526 25.3629 10.8352 24.4924 10.8352C23.6221 10.8352 22.9165 11.526 22.9165 12.3781C22.9165 13.2303 23.6221 13.9211 24.4924 13.9211Z" fill="#4285F4"/>
<path d="M22.9165 14.0613H26.0684V12.3781H22.9165V14.0613Z" fill="#4285F4"/>
<path d="M7.87819 18.9698C8.74853 18.9698 9.45412 18.279 9.45412 17.4269C9.45412 16.5747 8.74853 15.8839 7.87819 15.8839C7.00781 15.8839 6.30225 16.5747 6.30225 17.4269C6.30225 18.279 7.00781 18.9698 7.87819 18.9698Z" fill="#EA4335"/>
<path d="M7.87819 20.6526C8.74853 20.6526 9.45412 19.9618 9.45412 19.1097C9.45412 18.2575 8.74853 17.5667 7.87819 17.5667C7.00781 17.5667 6.30225 18.2575 6.30225 19.1097C6.30225 19.9618 7.00781 20.6526 7.87819 20.6526Z" fill="#EA4335"/>
<path d="M9.45412 17.4265H6.30225V19.1097H9.45412V17.4265Z" fill="#EA4335"/>
<path d="M7.87819 8.87284C8.74853 8.87284 9.45412 8.18205 9.45412 7.32993C9.45412 6.47779 8.74853 5.78699 7.87819 5.78699C7.00781 5.78699 6.30225 6.47779 6.30225 7.32993C6.30225 8.18205 7.00781 8.87284 7.87819 8.87284Z" fill="#EA4335"/>
<path d="M7.87819 14.3417C8.74853 14.3417 9.45412 13.651 9.45412 12.7988C9.45412 11.9467 8.74853 11.2559 7.87819 11.2559C7.00781 11.2559 6.30225 11.9467 6.30225 12.7988C6.30225 13.651 7.00781 14.3417 7.87819 14.3417Z" fill="#EA4335"/>
<path d="M9.45329 7.32935H6.30225V12.8334H9.45329V7.32935Z" fill="#EA4335"/>
<path d="M19.0501 10.5559C19.9204 10.5559 20.626 9.86507 20.626 9.01292C20.626 8.16077 19.9204 7.46997 19.0501 7.46997C18.1797 7.46997 17.4741 8.16077 17.4741 9.01292C17.4741 9.86507 18.1797 10.5559 19.0501 10.5559Z" fill="#34A853"/>
<path d="M19.0501 8.87284C19.9204 8.87284 20.626 8.18205 20.626 7.32993C20.626 6.47779 19.9204 5.78699 19.0501 5.78699C18.1797 5.78699 17.4741 6.47779 17.4741 7.32993C17.4741 8.18205 18.1797 8.87284 19.0501 8.87284Z" fill="#34A853"/>
<path d="M17.4736 9.01267H20.6256V7.32947H17.4736V9.01267Z" fill="#34A853"/>
<path d="M13.4641 5.64777C14.3345 5.64777 15.0401 4.95698 15.0401 4.10483C15.0401 3.25269 14.3345 2.56189 13.4641 2.56189C12.5938 2.56189 11.8882 3.25269 11.8882 4.10483C11.8882 4.95698 12.5938 5.64777 13.4641 5.64777Z" fill="#FAB908"/>
<path d="M13.4641 3.96479C14.3345 3.96479 15.0401 3.27399 15.0401 2.42185C15.0401 1.56971 14.3345 0.878906 13.4641 0.878906C12.5938 0.878906 11.8882 1.56971 11.8882 2.42185C11.8882 3.27399 12.5938 3.96479 13.4641 3.96479Z" fill="#FAB908"/>
<path d="M11.8882 4.10472H15.0401V2.42151H11.8882V4.10472Z" fill="#FAB908"/>
<path d="M13.4641 25.5603C14.3345 25.5603 15.0401 24.8695 15.0401 24.0173C15.0401 23.1652 14.3345 22.4744 13.4641 22.4744C12.5938 22.4744 11.8882 23.1652 11.8882 24.0173C11.8882 24.8695 12.5938 25.5603 13.4641 25.5603Z" fill="#FAB908"/>
<path d="M13.4641 23.8776C14.3345 23.8776 15.0401 23.1868 15.0401 22.3347C15.0401 21.4825 14.3345 20.7917 13.4641 20.7917C12.5938 20.7917 11.8882 21.4825 11.8882 22.3347C11.8882 23.1868 12.5938 23.8776 13.4641 23.8776Z" fill="#FAB908"/>
<path d="M11.8882 24.0176H15.0401V22.3344H11.8882V24.0176Z" fill="#FAB908"/>
<path d="M19.0501 20.6526C19.9204 20.6526 20.626 19.9618 20.626 19.1097C20.626 18.2575 19.9204 17.5667 19.0501 17.5667C18.1797 17.5667 17.4741 18.2575 17.4741 19.1097C17.4741 19.9618 18.1797 20.6526 19.0501 20.6526Z" fill="#34A853"/>
<path d="M19.0501 15.1834C19.9204 15.1834 20.626 14.4926 20.626 13.6405C20.626 12.7883 19.9204 12.0975 19.0501 12.0975C18.1797 12.0975 17.4741 12.7883 17.4741 13.6405C17.4741 14.4926 18.1797 15.1834 19.0501 15.1834Z" fill="#34A853"/>
<path d="M17.4736 19.109H20.6247V13.6399H17.4736V19.109Z" fill="#34A853"/>
<path d="M13.4641 10.2752C14.3345 10.2752 15.0401 9.58439 15.0401 8.73231C15.0401 7.88016 14.3345 7.18933 13.4641 7.18933C12.5938 7.18933 11.8882 7.88016 11.8882 8.73231C11.8882 9.58439 12.5938 10.2752 13.4641 10.2752Z" fill="#FAB908"/>
<path d="M13.4641 19.2502C14.3345 19.2502 15.0401 18.5594 15.0401 17.7072C15.0401 16.8551 14.3345 16.1643 13.4641 16.1643C12.5938 16.1643 11.8882 16.8551 11.8882 17.7072C11.8882 18.5594 12.5938 19.2502 13.4641 19.2502Z" fill="#FAB908"/>
<path fill-rule="evenodd" clip-rule="evenodd" d="M84.0852 17.0904H82.7734V7.09448H86.2529C87.1178 7.09448 87.8663 7.37602 88.4985 7.93908C89.1306 8.50218 89.4467 9.21183 89.4467 10.0681C89.4467 10.9244 89.1306 11.634 88.4985 12.1971C87.8663 12.7602 87.1178 13.0418 86.2529 13.0418H84.0852V17.0904ZM84.0852 11.8132H86.2812C86.8327 11.8132 87.2748 11.6317 87.6074 11.2688C87.94 10.9058 88.1067 10.5055 88.1067 10.0681C88.1067 9.63069 87.94 9.23046 87.6074 8.86751C87.2748 8.50449 86.8327 8.32304 86.2812 8.32304H84.0852V11.8132ZM90.5347 11.0733C91.2095 10.3752 92.0696 10.0262 93.1155 10.0262C94.1615 10.0262 95.0216 10.3729 95.6964 11.0663C96.3712 11.7597 96.7087 12.6276 96.7087 13.67C96.7087 14.7124 96.3712 15.5803 95.6964 16.2737C95.0216 16.9671 94.1615 17.3137 93.1155 17.3137C92.0696 17.3137 91.2095 16.9671 90.5347 16.2737C89.8598 15.5803 89.5224 14.7124 89.5224 13.67C89.5224 12.6276 89.8598 11.762 90.5347 11.0733ZM91.5042 15.4709C91.9608 15.9177 92.4979 16.1411 93.1155 16.1411C93.7332 16.1411 94.2683 15.9154 94.72 15.4639C95.171 15.0126 95.3969 14.4146 95.3969 13.67C95.3969 12.9254 95.171 12.3274 94.72 11.876C94.2683 11.4246 93.7332 11.1989 93.1155 11.1989C92.4979 11.1989 91.9628 11.4246 91.5111 11.876C91.0601 12.3274 90.8342 12.9254 90.8342 13.67C90.8342 14.4146 91.0573 15.0149 91.5042 15.4709ZM100.663 17.3137C99.7599 17.3137 98.9804 16.9647 98.3241 16.2667C97.6686 15.5687 97.3401 14.7031 97.3401 13.67C97.3401 12.6369 97.6686 11.7713 98.3241 11.0733C98.9804 10.3752 99.7599 10.0262 100.663 10.0262C101.195 10.0262 101.673 10.138 102.096 10.3613C102.519 10.5847 102.835 10.8639 103.044 11.1989H103.101L103.044 10.2496V7.09448H104.356V17.0904H103.101V16.1411H103.044C102.835 16.4761 102.519 16.7553 102.096 16.9787C101.673 17.2021 101.195 17.3137 100.663 17.3137ZM100.877 16.1411C101.494 16.1411 102.02 15.9177 102.452 15.4709C102.885 15.0242 103.101 14.4239 103.101 13.67C103.101 12.9161 102.885 12.3158 102.452 11.8691C102.02 11.4223 101.494 11.1989 100.877 11.1989C100.268 11.1989 99.7454 11.4246 99.3081 11.876C98.8709 12.3274 98.6519 12.9254 98.6519 13.67C98.6519 14.4146 98.8709 15.0126 99.3081 15.4639C99.7454 15.9154 100.268 16.1411 100.877 16.1411ZM108.909 17.3137C107.863 17.3137 107.003 16.9671 106.328 16.2737C105.653 15.5803 105.315 14.7124 105.315 13.67C105.315 12.6276 105.653 11.7597 106.328 11.0663C107.003 10.3729 107.863 10.0262 108.909 10.0262C109.688 10.0262 110.335 10.2124 110.848 10.5847C111.361 10.957 111.737 11.427 111.974 11.9947L110.777 12.4833C110.415 11.627 109.765 11.1989 108.823 11.1989C108.243 11.1989 107.732 11.4317 107.29 11.897C106.848 12.3623 106.627 12.9533 106.627 13.67C106.627 14.3866 106.848 14.9777 107.29 15.443C107.732 15.9084 108.243 16.1411 108.823 16.1411C109.802 16.1411 110.477 15.7129 110.848 14.8567L112.017 15.3453C111.779 15.9037 111.397 16.3714 110.869 16.7483C110.342 17.1253 109.688 17.3137 108.909 17.3137ZM115.129 17.3137C114.389 17.3137 113.768 17.1043 113.269 16.6855C112.77 16.2667 112.52 15.7129 112.52 15.0242C112.52 14.2796 112.815 13.6956 113.404 13.2721C113.994 12.8486 114.721 12.6369 115.586 12.6369C116.356 12.6369 116.988 12.7765 117.482 13.0557V12.8603C117.482 12.3577 117.307 11.9552 116.955 11.6527C116.603 11.3502 116.171 11.1989 115.658 11.1989C115.277 11.1989 114.932 11.2873 114.623 11.4642C114.315 11.641 114.103 11.883 113.989 12.1901L112.791 11.6876C112.953 11.278 113.272 10.8988 113.747 10.5498C114.222 10.2007 114.849 10.0262 115.629 10.0262C116.522 10.0262 117.264 10.2822 117.854 10.7941C118.443 11.306 118.738 12.0273 118.738 12.958V17.0904H117.482V16.1411H117.425C116.903 16.9229 116.138 17.3137 115.129 17.3137ZM115.344 16.1411C115.886 16.1411 116.377 15.9432 116.819 15.5477C117.261 15.1522 117.482 14.6845 117.482 14.1447C117.112 13.8469 116.556 13.6979 115.814 13.6979C115.177 13.6979 114.697 13.8328 114.374 14.1028C114.051 14.3727 113.889 14.6891 113.889 15.0521C113.889 15.3871 114.037 15.6524 114.331 15.8479C114.626 16.0434 114.963 16.1411 115.344 16.1411ZM122.577 17.3137C121.798 17.3137 121.153 17.1276 120.645 16.7553C120.136 16.383 119.763 15.9177 119.525 15.3593L120.695 14.8846C121.066 15.7409 121.698 16.169 122.591 16.169C123 16.169 123.335 16.0806 123.596 15.9037C123.858 15.7269 123.989 15.4942 123.989 15.2057C123.989 14.7589 123.67 14.4565 123.033 14.2982L121.622 13.9631C121.175 13.8515 120.752 13.6398 120.352 13.328C119.954 13.0161 119.754 12.595 119.754 12.0645C119.754 11.4595 120.027 10.9686 120.574 10.5916C121.12 10.2147 121.769 10.0262 122.52 10.0262C123.138 10.0262 123.689 10.1635 124.174 10.4381C124.659 10.7127 125.006 11.1059 125.215 11.6178L124.074 12.0785C123.818 11.4735 123.285 11.171 122.477 11.171C122.088 11.171 121.759 11.2501 121.493 11.4083C121.227 11.5666 121.094 11.7807 121.094 12.0505C121.094 12.4414 121.403 12.7067 122.021 12.8463L123.404 13.1674C124.06 13.3163 124.545 13.5722 124.859 13.9353C125.173 14.2982 125.329 14.7078 125.329 15.1638C125.329 15.7781 125.073 16.2899 124.559 16.6995C124.046 17.109 123.385 17.3137 122.577 17.3137ZM129.255 17.2021C128.523 17.2021 127.964 17.0113 127.579 16.6297C127.194 16.2481 127.002 15.7083 127.002 15.0103V11.4223H125.775V10.2496H127.002V8.15548H128.313V10.2496H130.025V11.4223H128.313V14.9125C128.313 15.6571 128.627 16.0293 129.255 16.0293C129.492 16.0293 129.692 15.9921 129.853 15.9177L130.31 17.0205C130.025 17.1416 129.673 17.2021 129.255 17.2021ZM133.85 17.3137C133.07 17.3137 132.426 17.1276 131.918 16.7553C131.409 16.383 131.036 15.9177 130.799 15.3593L131.968 14.8846C132.338 15.7409 132.97 16.169 133.864 16.169C134.273 16.169 134.608 16.0806 134.87 15.9037C135.131 15.7269 135.261 15.4942 135.261 15.2057C135.261 14.7589 134.943 14.4565 134.306 14.2982L132.895 13.9631C132.448 13.8515 132.025 13.6398 131.626 13.328C131.226 13.0161 131.026 12.595 131.026 12.0645C131.026 11.4595 131.3 10.9686 131.847 10.5916C132.393 10.2147 133.042 10.0262 133.793 10.0262C134.411 10.0262 134.963 10.1635 135.447 10.4381C135.932 10.7127 136.279 11.1059 136.488 11.6178L135.347 12.0785C135.091 11.4735 134.558 11.171 133.75 11.171C133.36 11.171 133.032 11.2501 132.767 11.4083C132.5 11.5666 132.367 11.7807 132.367 12.0505C132.367 12.4414 132.676 12.7067 133.294 12.8463L134.677 13.1674C135.333 13.3163 135.818 13.5722 136.132 13.9353C136.445 14.2982 136.602 14.7078 136.602 15.1638C136.602 15.7781 136.345 16.2899 135.832 16.6995C135.319 17.109 134.658 17.3137 133.85 17.3137Z" fill="#14142B"/>
<path d="M32.9536 11.5832C32.9536 8.4203 35.6607 5.85718 38.8913 5.85718C40.6737 5.85718 41.9437 6.54431 42.9018 7.43867L41.7654 8.54026C41.0859 7.90766 40.1613 7.41686 38.8913 7.41686C36.5407 7.41686 34.7027 9.271 34.7027 11.5724C34.7027 13.8737 36.5407 15.7279 38.8913 15.7279C40.4175 15.7279 41.2864 15.128 41.8435 14.5826C42.3002 14.1355 42.601 13.492 42.7123 12.6194H38.8913V11.0597H44.2719C44.3277 11.3433 44.3611 11.6705 44.3611 12.0413C44.3611 13.2193 44.038 14.6699 42.9797 15.6952C41.9437 16.7422 40.6292 17.2984 38.8913 17.2984C35.6607 17.2984 32.9536 14.7354 32.9536 11.5832ZM48.65 10.0018C50.7332 10.0018 52.4265 11.5505 52.4265 13.6883C52.4265 15.8151 50.7332 17.3748 48.65 17.3748C46.5668 17.3748 44.8735 15.8151 44.8735 13.6883C44.8735 11.5505 46.5668 10.0018 48.65 10.0018ZM48.65 15.9133C49.7863 15.9133 50.7778 14.9971 50.7778 13.6774C50.7778 12.3468 49.7863 11.4415 48.65 11.4415C47.5026 11.4415 46.5223 12.3468 46.5223 13.6774C46.5223 14.9971 47.5137 15.9133 48.65 15.9133ZM56.8937 10.0018C58.9769 10.0018 60.6702 11.5505 60.6702 13.6883C60.6702 15.8151 58.9769 17.3748 56.8937 17.3748C54.8105 17.3748 53.1172 15.8151 53.1172 13.6883C53.1172 11.5505 54.8105 10.0018 56.8937 10.0018ZM56.8937 15.9133C58.03 15.9133 59.0214 14.9971 59.0214 13.6774C59.0214 12.3468 58.0412 11.4415 56.8937 11.4415C55.7463 11.4415 54.766 12.3468 54.766 13.6774C54.766 14.9971 55.7574 15.9133 56.8937 15.9133ZM67.0089 10.1218H68.5909V16.7422C68.5909 19.4689 66.9532 20.5814 65.0148 20.5814C63.1879 20.5814 62.085 19.3817 61.6728 18.4001L63.1099 17.8111C63.3661 18.411 63.99 19.1199 65.0037 19.1199C66.2403 19.1199 67.0089 18.3674 67.0089 16.9604V16.4259H66.9532C66.5856 16.8731 65.8726 17.2657 64.9703 17.2657C63.0876 17.2657 61.3609 15.6515 61.3609 13.5901C61.3609 11.5069 63.0876 9.89272 64.9703 9.89272C65.8726 9.89272 66.5856 10.2853 66.9532 10.7217H67.0089V10.1218ZM65.1151 15.8151C66.2403 15.8151 67.1314 14.888 67.1203 13.5901C67.1203 12.2922 66.2403 11.3433 65.1151 11.3433C63.9788 11.3433 63.0208 12.2922 63.0208 13.5901C63.0208 14.8772 63.9788 15.8151 65.1151 15.8151ZM69.716 17.1239V6.29345H71.3646V17.1239H69.716ZM75.899 15.9133C76.7453 15.9133 77.3244 15.5097 77.7589 14.8989L79.0404 15.7387C78.6169 16.3386 77.6253 17.3748 75.899 17.3748C73.7595 17.3748 72.1668 15.7497 72.1668 13.6883C72.1668 11.496 73.7822 10.0018 75.7206 10.0018C77.6701 10.0018 78.6279 11.5178 78.9399 12.3468L79.1072 12.7612L74.0714 14.8008C74.4619 15.5315 75.052 15.9133 75.899 15.9133ZM75.7764 11.4197C74.9294 11.4197 73.7595 12.1504 73.8043 13.5683L77.1688 12.205C76.9904 11.736 76.4333 11.4197 75.7764 11.4197Z" fill="#14142B"/>
</svg>
