<svg width="89" height="295" viewBox="0 0 89 295" fill="none" xmlns="http://www.w3.org/2000/svg">
<path d="M-109.479 42.6823C-109.479 65.7786 -100.547 104.724 -134.275 146.824C-167.22 187.946 -121.897 57.7318 -76.3791 49.6722C-23.1716 40.2511 -114.869 258.393 -119.597 213.998C-122.243 189.161 -45.2788 58.7971 -23.63 80.4459C3.90999 107.986 -68.3049 265.291 -85.1674 262.704C-114.915 258.14 -8.52162 77.1957 21.6669 92.7797C57.6648 111.363 -1.66972 235.373 -29.2021 242.025C-51.228 247.346 30.9224 127.166 85.8949 154.671" stroke="black" stroke-width="5.48455" stroke-linecap="round"/>
<path d="M71.1722 146.12C71.8774 144.858 73.8067 145.509 73.6027 146.94V146.94C73.4803 147.799 74.2144 148.536 75.0736 148.417L80.8714 147.613C82.3249 147.411 83.0365 149.326 81.8043 150.122L77.9667 152.604C77.038 153.204 77.1657 154.6 78.1879 155.022L80.3787 155.927C81.6315 156.444 81.4544 158.272 80.1256 158.539L79.1321 158.738C78.3263 158.9 77.843 159.73 78.0995 160.51L78.4167 161.476C78.8034 162.653 77.5541 163.699 76.4633 163.111L74.9835 162.313C73.8675 161.711 72.6029 162.816 73.0497 164.003L73.8449 166.115C74.3638 167.493 72.6417 168.608 71.5962 167.571L68.0726 164.076C67.6366 163.644 66.9663 163.554 66.4318 163.857L62.5388 166.059C61.2685 166.778 59.904 165.278 60.7391 164.081L62.8814 161.01C63.2922 160.422 63.1793 159.616 62.6225 159.163L57.9906 155.392C56.99 154.577 57.566 152.957 58.8562 152.957H61.889C62.5706 152.957 63.1488 152.457 63.2461 151.782L63.6745 148.811C63.879 147.393 65.8472 147.199 66.3245 148.55L66.666 149.517C67.059 150.629 68.5803 150.759 69.1558 149.729L71.1722 146.12Z" fill="#CD4631"/>
</svg>
