<svg width="189" height="189" viewBox="0 0 189 189" fill="none" xmlns="http://www.w3.org/2000/svg">
<path d="M117.505 99.9972C117.162 97.5291 117.006 95.2248 116.501 92.818C115.785 89.4083 113.347 86.3427 111.658 83.3344C108.355 77.4504 104.89 70.8012 98.6251 67.6909C92.6956 64.7472 87.758 65.9035 81.8429 68.0011C78.2141 69.2878 75.7524 76.4212 74.7016 79.7005C72.9808 85.0701 71.9613 89.5443 72.9162 95.2333C73.6459 99.5802 75.1455 106.129 78.1383 109.57C79.5432 111.185 80.3339 112.507 82.133 113.735C83.3342 114.555 84.7097 115.352 85.7706 116.35C87.7459 118.208 90.7636 118.515 92.8004 120.538C94.5926 122.317 97.1828 122.968 97.7993 125.723C98.1911 127.473 99.0939 130.978 101.437 131.107C107.248 131.428 114.484 129.153 119.089 125.723C121.111 124.217 121.344 120.898 119.714 118.92C117.782 116.575 117.727 111.729 117.505 108.86C117.313 106.385 116.002 103.689 117.193 101.194C119.09 97.2167 119.544 92.6058 118.911 88.2092C118 81.8773 118.878 76.3527 114.492 71.081C112.811 69.0597 110.762 67.1555 108.891 65.2978C106.551 62.9742 104.276 60.5705 100.723 60.5117C95.3496 60.4227 88.7933 60.4441 84.6548 64.4115C82.8795 66.1134 80.3705 68.135 79.5443 70.5049C78.0508 74.7888 78.6567 78.918 79.1426 83.3566C80.069 91.819 80.0048 102.205 86.574 108.728C88.4065 110.547 89.4006 107.726 89.6984 106.379C90.1882 104.163 89.327 101.744 89.0735 99.5541C88.7237 96.5323 87.9227 93.7198 86.9757 90.8238C86.4583 89.2415 84.0982 78.6522 80.7717 81.0743C76.826 83.9472 77.733 94.6732 78.8078 98.3575C79.9441 102.253 82.9715 109.682 88.4263 108.284C93.5331 106.976 95.1409 100.926 92.1532 97.0059C90.7474 95.1615 85.6625 90.633 85.0565 95.5213C84.4411 100.486 88.4273 106.528 91.9747 109.547C94.2394 111.475 98.9856 113.085 100.143 108.949C100.823 106.515 96.3574 102.811 94.1171 103.277C88.8486 104.372 94.9273 114.644 96.1702 116.638C97.6431 119 106.312 124.109 104.561 117.945C104.088 116.279 99.9117 111.521 97.844 112.805C94.1714 115.084 102.025 123.206 103.981 124.061C106.908 125.34 106.74 122.263 105.454 120.649C104.333 119.241 101.889 117.435 102.865 120.759C103.536 123.042 105.687 128.446 108.891 127.828C112.278 127.174 110.401 119.1 109.694 117.28C109.103 115.757 107.877 112.634 106.257 111.83C104.823 111.118 105.963 114.628 106.101 114.976C106.973 117.174 109.216 122.554 112.194 122.554C115.822 122.554 112.579 114.193 112.104 113.048C111.59 111.808 111.073 109.638 109.694 109.016C108.556 108.502 109.56 112.625 109.694 113.048C110.035 114.124 112.381 123.855 115.095 122.643C118.402 121.165 116.267 114.48 115.675 112.073C115.069 109.611 114.253 107.222 113.577 104.783C113.198 103.415 113.06 103.827 113.399 105.005C113.573 105.61 114.282 106.915 115.095 106.512C116.541 105.794 116.363 102.677 116.501 101.393C117.034 96.4137 116.573 91.1125 116.211 86.1263C115.969 82.7933 115.664 80.2162 113.912 77.4625C111.306 73.3662 110.833 69.4176 106.347 66.5829C103.009 64.4739 99.0935 61.7358 95.2106 63.924C90.1873 66.7548 86.4305 73.0057 84.2531 78.1494C83.3951 80.1764 82.5182 86.7091 86.4625 83.5338C89.1314 81.3852 90.8305 78.6412 92.2202 75.5569C93.6535 72.3759 95.5279 68.9579 95.166 65.3643C94.4541 58.2958 86.9839 69.8838 86.2616 71.4577C84.8849 74.4579 79.7525 86.5373 84.9672 88.3864C86.8672 89.0602 88.9159 86.9526 90.0554 85.6832C92.9044 82.5095 95.2144 78.3493 95.7239 74.0724C96.0158 71.6222 95.5826 68.161 93.0905 66.8488C89.83 65.1321 86.2068 71.4242 85.1011 73.4963C82.8357 77.7418 81.3896 82.3387 81.0172 87.1456C80.8028 89.9123 80.4417 94.2457 83.3604 95.8759C85.6773 97.1698 88.6687 93.7643 89.9215 92.2863C93.0802 88.5597 95.0747 84.3295 96.7505 79.7891C98.0009 76.4011 98.5945 72.3877 97.6208 68.8431C96.7776 65.7732 93.5279 70.289 92.9789 71.1475C89.5498 76.5099 88.0519 83.2441 87.065 89.45C86.5406 92.7475 85.5154 98.0692 87.8015 100.95C92.9949 107.495 100.068 89.7248 100.767 87.2342C101.957 82.9963 102.59 78.2848 102.017 73.8951C101.466 69.6704 98.7907 75.3761 98.268 76.7535C96.5334 81.3241 95.9516 86.5193 95.59 91.3556C95.3347 94.77 94.679 99.5912 95.9917 102.922C97.2014 105.992 99.7356 104.37 101.035 102.435C103.844 98.2515 104.592 93.1516 105.052 88.2535C105.441 84.1107 105.423 79.7086 104.829 75.5791C104.141 70.7988 102.409 80.6567 102.285 81.4288C101.293 87.613 100.659 93.9562 100.634 100.219C100.62 103.511 99.4999 112.574 103.222 114.666C105.31 115.839 107.158 112.944 108.02 111.453C110.812 106.625 110.817 100.029 110.431 94.6572C110.157 90.8491 109.682 87.0618 109.092 83.2901C108.832 81.6333 108.686 79.6864 107.864 78.1716C106.73 76.0796 106.316 85.8025 106.324 86.3479C106.353 88.1928 107.992 112.11 110.989 110.677C112.572 109.921 112.736 105.498 112.863 104.141C113.465 97.7384 112.426 91.0247 111.279 84.7304C111.193 84.2628 109.974 79.4832 109.962 79.5232C108.957 82.9601 109.471 87.3084 109.471 90.8238C109.471 94.8714 109.264 99.0066 110.274 102.966C110.684 104.571 111.571 106.45 112.372 103.941C114.871 96.1179 112.604 86.4547 110.475 78.7034C109.912 76.6533 109.827 78.1371 109.962 79.3017C110.318 82.3647 110.754 85.7739 111.881 88.6523C112.07 89.1342 113.445 92.1734 114.448 90.9568C115.416 89.782 114.377 86.4108 114.046 85.1957C112.872 80.891 110.648 76.9023 108.288 73.1417C107.015 71.1127 105.548 68.6755 103.066 67.9567C96.7454 66.1263 97.4206 85.0153 97.5092 87.5444C97.6555 91.721 98.1656 95.839 99.4061 99.8421C99.595 100.452 100.805 104.28 101.816 102.523C103.299 99.9475 100.806 94.9821 99.6516 92.7294C98.5981 90.6743 94.8922 83.4133 92.0193 83.5117C88.9614 83.6164 88.9907 89.4876 89.0735 91.3556C89.3084 96.652 90.5127 101.88 92.912 106.645C94.0742 108.953 96.1134 111.497 98.7813 112.096C99.8801 112.342 102.331 112.031 101.95 110.367C101.57 108.705 99.3444 107.786 98.0895 106.955C95.5908 105.301 93.2327 103.522 90.5464 102.169C85.9673 99.8625 90.3682 107.573 91.2382 109.237C92.6456 111.928 94.5565 115.332 97.5762 116.505C98.8526 117.001 99.2046 116.111 98.1564 115.331C96.1186 113.813 94.0989 112.274 92.0193 110.81C91.1925 110.228 88.221 107.099 87.065 107.354C87.0008 107.368 92.2522 114.198 93.2021 114.932C96.4438 117.435 86.618 110.052 83.2265 107.753C80.5843 105.961 82.0558 106.878 83.5836 108.373C85.0063 109.765 86.3104 111.249 87.6899 112.672C88.8325 113.85 90.3843 113.217 92.0193 113.802C94.3386 114.631 96.7484 117.385 99.4285 115.464C102.016 113.608 101.782 113.015 103.044 116.416C104.561 120.504 105.309 124.833 106.257 129.069C106.581 130.512 107.057 128.772 107.284 128.182C107.889 126.613 108.635 124.824 108.668 123.13C108.727 120.071 106.224 119.179 104.271 121.734C103.693 122.491 101.274 127.671 104.249 126.321C105.74 125.644 106.312 124.676 106.659 123.086C107.715 118.253 107.701 112.963 107.284 108.063C107.174 106.769 107.018 100.469 105.03 99.9751C102.712 99.3998 101.581 108.541 101.437 109.88C101.045 113.526 100.332 117.224 101.035 120.87C101.668 124.149 103.206 123.026 104.16 120.471C105.672 116.422 105.79 111.629 105.61 107.376C105.485 104.423 105.129 101.566 104.45 98.6899C104.23 97.7596 104.017 95.5185 103.021 94.9009C101.328 93.8498 101.074 100.929 101.035 101.57C100.912 103.587 100.292 109.607 100.656 107.62C102.074 99.878 99.4964 90.5119 95.3222 83.9548C90.1786 75.8751 84.6102 89.57 84.6102 94.1475C84.6102 94.9417 84.6997 97.7382 86.1723 97.0281C88.7787 95.7711 88.4288 90.9473 88.404 88.6967C88.3789 86.414 87.9528 79.7223 85.3689 78.4153C82.2497 76.8376 82.1838 87.9541 82.1553 88.8296" stroke="#FFD700" stroke-width="4.81531" stroke-linecap="round" stroke-linejoin="round"/>
<path d="M103.446 137.488C105.569 137.077 107.782 136.532 109.895 136.27C111.779 136.036 114.369 133.825 116.055 132.924C117.604 132.096 119.542 131.916 121.031 130.93C121.617 130.542 123.626 127.815 123.531 129.512C123.472 130.557 121.962 132.351 121.5 133.345C120.675 135.12 118.801 136.853 117.282 138.087C115.636 139.424 114.014 140.529 112.105 141.477C110.289 142.378 107.984 142.894 106.436 144.269C105.339 145.243 107.185 145.28 108.088 145.443C109.799 145.752 111.539 145.425 112.93 144.468C114.585 143.331 116.888 142.198 118.8 141.565C120.505 141.001 121.604 139.93 123.129 139.172C123.726 138.876 125.888 138.408 124.535 139.483C123.887 139.997 123.888 141.387 123.531 142.097C123.079 142.994 122.039 143.85 121.277 144.49C119.61 145.891 117.798 147.507 115.899 148.567C115.087 149.02 118.593 149.376 118.71 149.454" stroke="#4D4D4D" stroke-width="4.81531" stroke-linecap="round" stroke-linejoin="round"/>
<path d="M101.035 127.517C101.035 123.427 101.437 119.453 101.437 115.375C101.437 110.334 99.8676 105.361 98.5357 100.529C97.1536 95.5146 95.4133 90.516 92.1978 86.3478C90.288 83.8721 88.2883 79.656 84.6547 79.656C82.5019 79.656 82.1553 81.5955 82.1553 83.2456C82.1553 86.3722 83.9057 89.0861 86.4847 90.8237C89.3296 92.7405 92.9722 93.1882 96.1255 94.4133C98.7486 95.4324 101.417 96.6526 103.356 94.0144C107.175 88.8179 108.106 82.627 107.864 76.3767C107.84 75.761 106.892 73.6636 106.168 74.3824C104.764 75.777 103.89 78.3635 103.847 80.3208C103.655 89.0721 104.835 98.5801 108.355 106.645C109.143 108.451 109.942 110.257 110.899 111.985C111.64 113.322 111.883 114.903 112.774 116.128C113.28 116.824 117.07 121.225 115.496 119.142" stroke="#4D4D4D" stroke-width="4.81531" stroke-linecap="round" stroke-linejoin="round"/>
<path d="M67.6943 133.5C69.9848 131.226 71.8978 128.744 73.8091 126.144C75.0404 124.468 74.601 124.957 74.1215 123.529" stroke="#FFD700" stroke-width="4.81531" stroke-linecap="round" stroke-linejoin="round"/>
<path d="M49.2158 100.795C51.3833 100.048 54.2554 98.9983 56.134 97.6926C56.4109 97.5001 55.7218 99.3557 55.2413 98.4016" stroke="#FFD700" stroke-width="4.81531" stroke-linecap="round" stroke-linejoin="round"/>
<path d="M43.1904 63.3033C45.9546 65.1517 48.6638 66.8929 52.1171 66.8929C52.8842 66.8929 55.3979 66.8048 54.8397 65.6964" stroke="#FFD700" stroke-width="4.81531" stroke-linecap="round" stroke-linejoin="round"/>
<path d="M73.7197 41.7659C74.3034 44.4705 75.3352 46.4965 76.911 48.7456C77.1807 49.1306 79.1189 51.2031 78.1384 49.7428" stroke="#FFD700" stroke-width="4.81531" stroke-linecap="round" stroke-linejoin="round"/>
<path d="M109.873 46.1531C111.633 44.9759 113.618 43.7083 115.095 42.1647C115.521 41.7193 117.103 39.6103 117.103 39.7716" stroke="#FFD700" stroke-width="4.81531" stroke-linecap="round" stroke-linejoin="round"/>
<path d="M133.975 65.6965C138 64.3915 146.026 61.708 146.026 61.708" stroke="#FFD700" stroke-width="4.81531" stroke-linecap="round" stroke-linejoin="round"/>
<path d="M134.376 98.4017C136.778 100.716 139.067 100.391 142.009 101.504C143.308 101.995 143.797 101.549 142.009 101.194" stroke="#FFD700" stroke-width="4.81531" stroke-linecap="round" stroke-linejoin="round"/>
</svg>
