<svg width="13" height="13" viewBox="0 0 13 13" fill="none" xmlns="http://www.w3.org/2000/svg">
<mask id="path-1-outside-1_502_373" maskUnits="userSpaceOnUse" x="-0.226074" y="0.020752" width="13" height="13" fill="black">
<rect fill="white" x="-0.226074" y="0.020752" width="13" height="13"/>
<path d="M6.2585 1.02075C5.17374 1.02075 4.11335 1.34241 3.21141 1.94505C2.30951 2.54772 1.60654 3.4043 1.1914 4.40645C0.776297 5.40863 0.667686 6.5114 0.879323 7.57528C1.09093 8.6392 1.61327 9.61644 2.38031 10.3835C3.14734 11.1505 4.12461 11.6729 5.18851 11.8845C6.25241 12.0961 7.35516 11.9875 8.35732 11.5724C9.35951 11.1572 10.2161 10.4543 10.8187 9.55236C11.4214 8.65043 11.743 7.59005 11.743 6.50531C11.743 5.0507 11.1652 3.6557 10.1367 2.62715C9.10808 1.59857 7.71309 1.02075 6.2585 1.02075ZM8.77533 8.93025C8.752 8.969 8.72118 9.00273 8.68471 9.02947C8.64821 9.05622 8.60677 9.07544 8.56277 9.08602C8.5188 9.09661 8.47314 9.09835 8.42847 9.09114C8.3838 9.08393 8.34102 9.06794 8.3026 9.04406C7.01574 8.25616 5.39619 8.08107 3.48776 8.51441C3.44433 8.52478 3.39931 8.52642 3.35525 8.51921C3.31122 8.51203 3.26901 8.49617 3.23116 8.47257C3.19329 8.44895 3.16049 8.41805 3.13464 8.38165C3.1088 8.34525 3.09049 8.30408 3.08069 8.26054C3.07026 8.21686 3.0686 8.17154 3.07571 8.12719C3.08286 8.08284 3.09866 8.04036 3.12223 8.00212C3.14581 7.96392 3.17673 7.93073 3.21314 7.90447C3.24957 7.87821 3.29083 7.85938 3.33454 7.84908C5.42245 7.37197 7.21707 7.57769 8.66155 8.46189C8.7386 8.50901 8.79387 8.58477 8.81518 8.67254C8.83653 8.76034 8.8222 8.853 8.77533 8.93025ZM9.44505 7.43762C9.38388 7.53173 9.2889 7.59871 9.17975 7.62478C9.07059 7.65085 8.9556 7.63399 8.85851 7.57769C7.19422 6.64931 5.22948 6.41948 3.39583 6.93862C3.33878 6.97046 3.27532 6.98909 3.21014 6.99318C3.14492 6.99727 3.07964 6.98671 3.01905 6.96228C2.95846 6.93785 2.90412 6.9002 2.85999 6.85201C2.81587 6.80386 2.78307 6.74641 2.76402 6.68394C2.74497 6.62144 2.74015 6.55549 2.74991 6.49089C2.75968 6.4263 2.78377 6.36473 2.82043 6.31066C2.85709 6.25659 2.9054 6.21143 2.96178 6.17844C3.01819 6.14548 3.08123 6.12553 3.14632 6.12012C4.16979 5.8255 5.24182 5.73837 6.29943 5.86393C7.35704 5.98945 8.37892 6.32508 9.30498 6.85111C9.39907 6.91226 9.46604 7.00724 9.49211 7.11638C9.51818 7.22556 9.50133 7.34055 9.44505 7.43762ZM9.50194 5.88375C7.75109 4.83323 4.8228 4.73693 3.13321 5.24906C3.00319 5.28855 2.8628 5.27474 2.74296 5.21069C2.62312 5.14668 2.53362 5.03767 2.49415 4.90764C2.45468 4.77764 2.46847 4.63725 2.5325 4.51739C2.59651 4.39757 2.70553 4.30806 2.83555 4.2686C4.77465 3.68205 7.99183 3.79586 10.0272 4.99956C10.1318 5.07445 10.2045 5.18598 10.2306 5.31198C10.2568 5.43795 10.2345 5.56917 10.1683 5.67954C10.1021 5.78987 9.99678 5.87123 9.87333 5.90744C9.74985 5.94368 9.61725 5.93209 9.50194 5.875V5.88375Z"/>
</mask>
<path d="M6.2585 1.02075C5.17374 1.02075 4.11335 1.34241 3.21141 1.94505C2.30951 2.54772 1.60654 3.4043 1.1914 4.40645C0.776297 5.40863 0.667686 6.5114 0.879323 7.57528C1.09093 8.6392 1.61327 9.61644 2.38031 10.3835C3.14734 11.1505 4.12461 11.6729 5.18851 11.8845C6.25241 12.0961 7.35516 11.9875 8.35732 11.5724C9.35951 11.1572 10.2161 10.4543 10.8187 9.55236C11.4214 8.65043 11.743 7.59005 11.743 6.50531C11.743 5.0507 11.1652 3.6557 10.1367 2.62715C9.10808 1.59857 7.71309 1.02075 6.2585 1.02075ZM8.77533 8.93025C8.752 8.969 8.72118 9.00273 8.68471 9.02947C8.64821 9.05622 8.60677 9.07544 8.56277 9.08602C8.5188 9.09661 8.47314 9.09835 8.42847 9.09114C8.3838 9.08393 8.34102 9.06794 8.3026 9.04406C7.01574 8.25616 5.39619 8.08107 3.48776 8.51441C3.44433 8.52478 3.39931 8.52642 3.35525 8.51921C3.31122 8.51203 3.26901 8.49617 3.23116 8.47257C3.19329 8.44895 3.16049 8.41805 3.13464 8.38165C3.1088 8.34525 3.09049 8.30408 3.08069 8.26054C3.07026 8.21686 3.0686 8.17154 3.07571 8.12719C3.08286 8.08284 3.09866 8.04036 3.12223 8.00212C3.14581 7.96392 3.17673 7.93073 3.21314 7.90447C3.24957 7.87821 3.29083 7.85938 3.33454 7.84908C5.42245 7.37197 7.21707 7.57769 8.66155 8.46189C8.7386 8.50901 8.79387 8.58477 8.81518 8.67254C8.83653 8.76034 8.8222 8.853 8.77533 8.93025ZM9.44505 7.43762C9.38388 7.53173 9.2889 7.59871 9.17975 7.62478C9.07059 7.65085 8.9556 7.63399 8.85851 7.57769C7.19422 6.64931 5.22948 6.41948 3.39583 6.93862C3.33878 6.97046 3.27532 6.98909 3.21014 6.99318C3.14492 6.99727 3.07964 6.98671 3.01905 6.96228C2.95846 6.93785 2.90412 6.9002 2.85999 6.85201C2.81587 6.80386 2.78307 6.74641 2.76402 6.68394C2.74497 6.62144 2.74015 6.55549 2.74991 6.49089C2.75968 6.4263 2.78377 6.36473 2.82043 6.31066C2.85709 6.25659 2.9054 6.21143 2.96178 6.17844C3.01819 6.14548 3.08123 6.12553 3.14632 6.12012C4.16979 5.8255 5.24182 5.73837 6.29943 5.86393C7.35704 5.98945 8.37892 6.32508 9.30498 6.85111C9.39907 6.91226 9.46604 7.00724 9.49211 7.11638C9.51818 7.22556 9.50133 7.34055 9.44505 7.43762ZM9.50194 5.88375C7.75109 4.83323 4.8228 4.73693 3.13321 5.24906C3.00319 5.28855 2.8628 5.27474 2.74296 5.21069C2.62312 5.14668 2.53362 5.03767 2.49415 4.90764C2.45468 4.77764 2.46847 4.63725 2.5325 4.51739C2.59651 4.39757 2.70553 4.30806 2.83555 4.2686C4.77465 3.68205 7.99183 3.79586 10.0272 4.99956C10.1318 5.07445 10.2045 5.18598 10.2306 5.31198C10.2568 5.43795 10.2345 5.56917 10.1683 5.67954C10.1021 5.78987 9.99678 5.87123 9.87333 5.90744C9.74985 5.94368 9.61725 5.93209 9.50194 5.875V5.88375Z" fill="#1ED760"/>
<path d="M3.21141 1.94505L2.83054 1.37501L2.83052 1.37503L3.21141 1.94505ZM1.1914 4.40645L0.558026 4.14408L0.558016 4.1441L1.1914 4.40645ZM0.879323 7.57528L1.55172 7.44155L1.55172 7.44152L0.879323 7.57528ZM2.38031 10.3835L1.89554 10.8682L1.89555 10.8683L2.38031 10.3835ZM8.35732 11.5724L8.09496 10.939L8.09495 10.939L8.35732 11.5724ZM10.1367 2.62715L9.65189 3.11192V3.11192L10.1367 2.62715ZM8.77533 8.93025L8.18922 8.5746L8.18795 8.57671L8.77533 8.93025ZM8.68471 9.02947L9.08992 9.58248L9.09015 9.58231L8.68471 9.02947ZM8.56277 9.08602L8.40236 8.41949L8.40225 8.41951L8.56277 9.08602ZM8.3026 9.04406L8.66456 8.46181L8.66058 8.45937L8.3026 9.04406ZM3.48776 8.51441L3.33594 7.84582L3.32861 7.84757L3.48776 8.51441ZM3.35525 8.51921L3.46595 7.84264L3.46554 7.84257L3.35525 8.51921ZM3.23116 8.47257L2.86833 9.05426L2.86847 9.05434L3.23116 8.47257ZM3.08069 8.26054L3.74961 8.11007L3.7475 8.10125L3.08069 8.26054ZM3.07571 8.12719L2.39888 8.01812L2.3988 8.0186L3.07571 8.12719ZM3.12223 8.00212L2.53883 7.64205L2.5387 7.64227L3.12223 8.00212ZM3.21314 7.90447L2.81227 7.34831L2.81204 7.34848L3.21314 7.90447ZM3.33454 7.84908L3.18181 7.18072L3.17731 7.18178L3.33454 7.84908ZM8.66155 8.46189L8.30363 9.04661L8.30389 9.04677L8.66155 8.46189ZM8.81518 8.67254L8.14897 8.83432L8.14901 8.83449L8.81518 8.67254ZM9.44505 7.43762L10.0199 7.81122L10.0294 7.7966L10.0381 7.78151L9.44505 7.43762ZM8.85851 7.57769L9.20242 6.98452L9.19249 6.97898L8.85851 7.57769ZM3.39583 6.93862L3.20907 6.27898L3.13187 6.30084L3.06179 6.33994L3.39583 6.93862ZM3.21014 6.99318L3.25302 7.6774L3.25304 7.6774L3.21014 6.99318ZM2.85999 6.85201L3.36557 6.38898L3.36542 6.38881L2.85999 6.85201ZM2.76402 6.68394L2.10823 6.8838L2.10825 6.88389L2.76402 6.68394ZM2.96178 6.17844L2.61594 5.58649L2.61554 5.58673L2.96178 6.17844ZM3.14632 6.12012L3.20308 6.80334L3.27074 6.79772L3.33598 6.77894L3.14632 6.12012ZM6.29943 5.86393L6.21861 6.54471L6.21863 6.54472L6.29943 5.86393ZM9.30498 6.85111L9.67857 6.27628L9.6614 6.26512L9.64359 6.255L9.30498 6.85111ZM9.49211 7.11638L10.1589 6.95716L10.1589 6.95712L9.49211 7.11638ZM9.50194 5.88375L9.14921 6.47162L10.1875 7.09461V5.88375H9.50194ZM3.13321 5.24906L2.93434 4.59297L2.93397 4.59308L3.13321 5.24906ZM2.74296 5.21069L3.0661 4.60606L3.06598 4.60599L2.74296 5.21069ZM2.49415 4.90764L3.15017 4.70851L3.15015 4.70847L2.49415 4.90764ZM2.5325 4.51739L3.13718 4.84045L3.13721 4.8404L2.5325 4.51739ZM2.83555 4.2686L2.63706 3.61239L2.63646 3.61258L2.83555 4.2686ZM10.0272 4.99956L10.4263 4.4421L10.4019 4.42469L10.3762 4.40946L10.0272 4.99956ZM10.2306 5.31198L10.9019 5.17273L10.9019 5.1726L10.2306 5.31198ZM10.1683 5.67954L10.7562 6.03229L10.7562 6.03221L10.1683 5.67954ZM9.87333 5.90744L9.68038 5.24959L9.68026 5.24962L9.87333 5.90744ZM9.50194 5.875L9.80615 5.26062L8.81637 4.77052V5.875H9.50194ZM6.2585 0.335183C5.03815 0.335183 3.84522 0.697048 2.83054 1.37501L3.59229 2.51508C4.38148 1.98777 5.30933 1.70632 6.2585 1.70632V0.335183ZM2.83052 1.37503C1.81588 2.05303 1.02505 3.01667 0.558026 4.14408L1.82478 4.66882C2.18803 3.79192 2.80314 3.04241 3.59231 2.51507L2.83052 1.37503ZM0.558016 4.1441C0.0910249 5.27155 -0.0311641 6.51216 0.206929 7.70904L1.55172 7.44152C1.36654 6.51063 1.46157 5.54572 1.82479 4.6688L0.558016 4.1441ZM0.206925 7.70901C0.444982 8.90593 1.03262 10.0053 1.89554 10.8682L2.86508 9.89871C2.19392 9.22755 1.73687 8.37247 1.55172 7.44155L0.206925 7.70901ZM1.89555 10.8683C2.75846 11.7311 3.85788 12.3188 5.05476 12.5569L5.32225 11.2121C4.39135 11.0269 3.53623 10.5698 2.86507 9.8987L1.89555 10.8683ZM5.05476 12.5569C6.25164 12.7949 7.49224 12.6728 8.61968 12.2057L8.09495 10.939C7.21808 11.3022 6.25317 11.3972 5.32225 11.2121L5.05476 12.5569ZM8.61968 12.2058C9.74713 11.7387 10.7108 10.9479 11.3888 9.93324L10.2487 9.17147C9.72138 9.96066 8.97188 10.5757 8.09496 10.939L8.61968 12.2058ZM11.3888 9.93324C12.0667 8.91857 12.4286 7.72564 12.4286 6.50531H11.0575C11.0575 7.45446 10.776 8.38229 10.2487 9.17147L11.3888 9.93324ZM12.4286 6.50531C12.4286 4.86888 11.7785 3.2995 10.6214 2.14238L9.65189 3.11192C10.5519 4.01189 11.0575 5.23252 11.0575 6.50531H12.4286ZM10.6214 2.14238C9.46429 0.985236 7.89492 0.335183 6.2585 0.335183V1.70632C7.53127 1.70632 8.75188 2.21191 9.65189 3.11192L10.6214 2.14238ZM8.18795 8.57671C8.21159 8.53744 8.24267 8.50348 8.27927 8.47664L9.09015 9.58231C9.19969 9.50197 9.29242 9.40056 9.36271 9.28378L8.18795 8.57671ZM8.2795 8.47647C8.31633 8.44949 8.35811 8.43013 8.40236 8.41949L8.72318 9.75256C8.85542 9.72074 8.98009 9.66295 9.08992 9.58248L8.2795 8.47647ZM8.40225 8.41951C8.4467 8.40881 8.49274 8.40707 8.53771 8.41433L8.31924 9.76795C8.45354 9.78963 8.5909 9.78442 8.72329 9.75254L8.40225 8.41951ZM8.53771 8.41433C8.58253 8.42157 8.62567 8.43765 8.66455 8.46182L7.94065 9.62629C8.05636 9.69822 8.18508 9.7463 8.31924 9.76795L8.53771 8.41433ZM8.66058 8.45937C7.17885 7.55216 5.3634 7.3855 3.33595 7.84586L3.63956 9.18296C5.42898 8.77665 6.85263 8.96016 7.94462 9.62874L8.66058 8.45937ZM3.32861 7.84757C3.37342 7.83688 3.42013 7.83514 3.46595 7.84264L3.24455 9.19578C3.3785 9.2177 3.51524 9.21268 3.6469 9.18126L3.32861 7.84757ZM3.46554 7.84257C3.51108 7.84999 3.55466 7.86637 3.59386 7.8908L2.86847 9.05434C2.98335 9.12597 3.11136 9.17407 3.24495 9.19585L3.46554 7.84257ZM3.594 7.89089C3.63309 7.91527 3.66697 7.94719 3.69365 7.98477L2.57564 8.77853C2.65401 8.88892 2.75349 8.98263 2.86833 9.05426L3.594 7.89089ZM3.69365 7.98477C3.72058 8.0227 3.73949 8.06535 3.74955 8.11008L2.41183 8.41099C2.44149 8.54281 2.49702 8.6678 2.57564 8.77853L3.69365 7.98477ZM3.7475 8.10125C3.75815 8.14585 3.75972 8.19158 3.75263 8.23579L2.3988 8.0186C2.37748 8.15151 2.38236 8.28787 2.41388 8.41983L3.7475 8.10125ZM3.75255 8.23626C3.74539 8.28072 3.72952 8.32346 3.70577 8.36197L2.5387 7.64227C2.46779 7.75725 2.42033 7.88497 2.39888 8.01812L3.75255 8.23626ZM3.70563 8.36219C3.68175 8.40089 3.65063 8.4342 3.61423 8.46046L2.81204 7.34848C2.70283 7.42727 2.60988 7.52695 2.53883 7.64205L3.70563 8.36219ZM3.614 8.46063C3.5774 8.48701 3.53588 8.50598 3.49177 8.51638L3.17731 7.18178C3.04578 7.21277 2.92175 7.2694 2.81227 7.34831L3.614 8.46063ZM3.48727 8.51742C5.44933 8.06906 7.04983 8.27914 8.30363 9.04661L9.01947 7.87717C7.38431 6.87625 5.39557 6.67487 3.18182 7.18074L3.48727 8.51742ZM8.30389 9.04677C8.2262 8.99926 8.17048 8.9229 8.14897 8.83432L9.48139 8.51076C9.41725 8.24664 9.251 8.01875 9.01921 7.87701L8.30389 9.04677ZM8.14901 8.83449C8.1275 8.746 8.14194 8.65253 8.18922 8.5746L9.36144 9.28589C9.50246 9.05348 9.54555 8.77468 9.48135 8.51059L8.14901 8.83449ZM8.87022 7.06402C8.90493 7.01061 8.95878 6.97271 9.02048 6.95797L9.33901 8.29159C9.61902 8.22472 9.86283 8.05285 10.0199 7.81122L8.87022 7.06402ZM9.02048 6.95797C9.08236 6.94319 9.14747 6.95277 9.20237 6.9846L8.51464 8.17079C8.76373 8.31521 9.05883 8.35851 9.33901 8.29159L9.02048 6.95797ZM9.19249 6.97898C7.36955 5.96209 5.21751 5.71035 3.20907 6.27898L3.58259 7.59827C5.24145 7.1286 7.0189 7.33653 8.52453 8.17641L9.19249 6.97898ZM3.06179 6.33994C3.09424 6.32184 3.13027 6.31127 3.16723 6.30895L3.25304 7.6774C3.42037 7.66691 3.58333 7.61908 3.72988 7.53731L3.06179 6.33994ZM3.16725 6.30895C3.20413 6.30664 3.2411 6.31261 3.2754 6.32644L2.76269 7.59812C2.91818 7.6608 3.08571 7.68789 3.25302 7.6774L3.16725 6.30895ZM3.2754 6.32644C3.30964 6.34025 3.34049 6.3616 3.36557 6.38898L2.35442 7.31505C2.46775 7.43879 2.60727 7.53545 2.76269 7.59812L3.2754 6.32644ZM3.36542 6.38881C3.39046 6.41614 3.409 6.44865 3.41978 6.48399L2.10825 6.88389C2.15713 7.04418 2.24128 7.19159 2.35457 7.31521L3.36542 6.38881ZM3.41981 6.48409C3.43058 6.51942 3.43331 6.55677 3.42778 6.59335L2.07204 6.38844C2.04699 6.55421 2.05936 6.72346 2.10823 6.8838L3.41981 6.48409ZM3.42778 6.59335C3.42226 6.62992 3.40861 6.6648 3.38787 6.69539L2.25299 5.92593C2.15893 6.06466 2.0971 6.22268 2.07204 6.38844L3.42778 6.59335ZM3.38787 6.69539C3.36701 6.72615 3.33967 6.75163 3.30801 6.77015L2.61554 5.58673C2.47113 5.67123 2.34717 5.78702 2.25299 5.92593L3.38787 6.69539ZM3.30762 6.77039C3.27599 6.78886 3.24031 6.80024 3.20308 6.80334L3.08957 5.4369C2.92216 5.45081 2.76038 5.5021 2.61594 5.58649L3.30762 6.77039ZM3.33598 6.77894C4.27167 6.50958 5.25174 6.42993 6.21861 6.54471L6.38025 5.18314C5.23191 5.04681 4.06792 5.14141 2.95667 5.46131L3.33598 6.77894ZM6.21863 6.54472C7.18553 6.65947 8.11975 6.96631 8.96636 7.44722L9.64359 6.255C8.63809 5.68384 7.52856 5.31942 6.38023 5.18314L6.21863 6.54472ZM8.93139 7.42595C8.87794 7.39121 8.84004 7.33736 8.8253 7.27565L10.1589 6.95712C10.092 6.67713 9.9202 6.43332 9.67857 6.27628L8.93139 7.42595ZM8.82529 7.27561C8.81055 7.21389 8.82005 7.14878 8.85196 7.09374L10.0381 7.78151C10.1826 7.53233 10.2258 7.23723 10.1589 6.95716L8.82529 7.27561ZM9.85466 5.29588C8.85622 4.69681 7.57117 4.3931 6.34834 4.29695C5.12242 4.20056 3.87918 4.30658 2.93434 4.59297L3.33208 5.90515C4.07683 5.67941 5.14252 5.57751 6.24086 5.66387C7.34229 5.75047 8.39681 6.02017 9.14921 6.47162L9.85466 5.29588ZM2.93397 4.59308C2.97802 4.5797 3.02555 4.58439 3.0661 4.60606L2.41982 5.81533C2.70005 5.9651 3.02836 5.9974 3.33245 5.90504L2.93397 4.59308ZM3.06598 4.60599C3.10655 4.62767 3.13682 4.66456 3.15017 4.70851L1.83814 5.10676C1.93041 5.41077 2.13968 5.66569 2.41994 5.8154L3.06598 4.60599ZM3.15015 4.70847C3.1635 4.75245 3.15884 4.79991 3.13718 4.84045L1.92783 4.19433C1.77809 4.47459 1.74586 4.80284 1.83815 5.10681L3.15015 4.70847ZM3.13721 4.8404C3.11552 4.88101 3.07862 4.91128 3.03465 4.92462L2.63646 3.61258C2.33245 3.70484 2.0775 3.91412 1.92779 4.19439L3.13721 4.8404ZM3.03404 4.9248C3.9052 4.66129 5.10566 4.5459 6.33982 4.64606C7.5757 4.74636 8.77818 5.05738 9.67824 5.58966L10.3762 4.40946C9.24087 3.73804 7.81706 3.39031 6.45073 3.27942C5.08267 3.16839 3.705 3.28936 2.63706 3.61239L3.03404 4.9248ZM9.62816 5.55701C9.59278 5.53169 9.56822 5.49397 9.55937 5.45136L10.9019 5.1726C10.8407 4.87798 10.6709 4.61722 10.4263 4.4421L9.62816 5.55701ZM9.55934 5.45123C9.55049 5.40856 9.55803 5.36416 9.58041 5.32686L10.7562 6.03221C10.911 5.77418 10.963 5.46735 10.9019 5.17273L9.55934 5.45123ZM9.58046 5.32678C9.60289 5.2894 9.63855 5.26185 9.68038 5.24959L10.0663 6.56529C10.355 6.48061 10.6013 6.29033 10.7562 6.03229L9.58046 5.32678ZM9.68026 5.24962C9.72211 5.23734 9.76705 5.24126 9.80615 5.26062L9.19773 6.48938C9.46745 6.62293 9.7776 6.65003 10.0664 6.56526L9.68026 5.24962ZM8.81637 5.875V5.88375H10.1875V5.875H8.81637Z" fill="black" mask="url(#path-1-outside-1_502_373)"/>
</svg>
