<svg width="52" height="52" viewBox="0 0 52 52" fill="none" xmlns="http://www.w3.org/2000/svg">
<g clip-path="url(#clip0_502_27)">
<path d="M22.9177 47.0724C18.8718 47.0724 14.9048 45.9536 11.4551 43.8396C8.00537 41.7256 5.20746 38.6989 3.37066 35.0939C1.53386 31.489 0.729728 27.4464 1.04716 23.4129C1.3646 19.3795 2.79124 15.5124 5.16936 12.2392C7.54748 8.96604 10.7844 6.41423 14.5224 4.86593C18.2603 3.31763 22.3536 2.83316 26.3496 3.46608C30.3457 4.099 34.0889 5.82465 37.1655 8.45225C40.242 11.0798 42.532 14.507 43.7822 18.3549L41.6958 19.0328C40.5705 15.5698 38.5096 12.4853 35.7407 10.1204C32.9718 7.7556 29.6029 6.20252 26.0064 5.63289C22.41 5.06326 18.726 5.49929 15.3619 6.89276C11.9978 8.28622 9.08451 10.5829 6.9442 13.5287C4.80389 16.4746 3.51992 19.955 3.23422 23.5851C2.94853 27.2151 3.67225 30.8535 5.32537 34.098C6.97849 37.3424 9.49661 40.0665 12.6013 41.969C15.7061 43.8716 19.2764 44.8786 22.9177 44.8786L22.9177 47.0724Z" fill="black"/>
<path d="M28.6794 22.9878C29.2745 22.9878 29.7896 23.087 30.2247 23.2853C30.6662 23.4837 31.0053 23.7652 31.2421 24.1299C31.4788 24.4947 31.5972 24.9266 31.5972 25.4257C31.5972 25.9184 31.4788 26.3503 31.2421 26.7214C31.0053 27.0861 30.6662 27.3677 30.2247 27.566C29.7896 27.758 29.2745 27.854 28.6794 27.854H27.3261V29.7064H25.7712V22.9878H28.6794ZM28.593 26.587C29.0601 26.587 29.4153 26.4878 29.6584 26.2895C29.9016 26.0847 30.0231 25.7968 30.0231 25.4257C30.0231 25.0481 29.9016 24.7602 29.6584 24.5618C29.4153 24.3571 29.0601 24.2547 28.593 24.2547H27.3261V26.587H28.593ZM35.6708 29.8215C34.9733 29.8215 34.3431 29.6712 33.78 29.3704C33.2233 29.0697 32.785 28.657 32.4651 28.1323C32.1515 27.6012 31.9948 27.0061 31.9948 26.3471C31.9948 25.688 32.1515 25.0961 32.4651 24.5714C32.785 24.0404 33.2233 23.6244 33.78 23.3237C34.3431 23.023 34.9733 22.8726 35.6708 22.8726C36.3682 22.8726 36.9953 23.023 37.552 23.3237C38.1087 23.6244 38.547 24.0404 38.8669 24.5714C39.1868 25.0961 39.3468 25.688 39.3468 26.3471C39.3468 27.0061 39.1868 27.6012 38.8669 28.1323C38.547 28.657 38.1087 29.0697 37.552 29.3704C36.9953 29.6712 36.3682 29.8215 35.6708 29.8215ZM35.6708 28.497C36.0675 28.497 36.4258 28.4074 36.7458 28.2283C37.0657 28.0427 37.3152 27.7868 37.4944 27.4604C37.68 27.1341 37.7727 26.763 37.7727 26.3471C37.7727 25.9312 37.68 25.56 37.4944 25.2337C37.3152 24.9074 37.0657 24.6546 36.7458 24.4755C36.4258 24.2899 36.0675 24.1971 35.6708 24.1971C35.2741 24.1971 34.9158 24.2899 34.5958 24.4755C34.2759 24.6546 34.0231 24.9074 33.8376 25.2337C33.6584 25.56 33.5688 25.9312 33.5688 26.3471C33.5688 26.763 33.6584 27.1341 33.8376 27.4604C34.0231 27.7868 34.2759 28.0427 34.5958 28.2283C34.9158 28.4074 35.2741 28.497 35.6708 28.497ZM40.1314 22.9878H43.1836C43.913 22.9878 44.5561 23.1286 45.1128 23.4101C45.6759 23.6852 46.111 24.0756 46.4181 24.581C46.7316 25.0865 46.8884 25.6752 46.8884 26.3471C46.8884 27.0189 46.7316 27.6076 46.4181 28.1131C46.111 28.6186 45.6759 29.0121 45.1128 29.2936C44.5561 29.5688 43.913 29.7064 43.1836 29.7064H40.1314V22.9878ZM43.1068 28.4298C43.7787 28.4298 44.313 28.2443 44.7097 27.8731C45.1128 27.4956 45.3143 26.9869 45.3143 26.3471C45.3143 25.7072 45.1128 25.2017 44.7097 24.8306C44.313 24.4531 43.7787 24.2643 43.1068 24.2643H41.6863V28.4298H43.1068Z" fill="#CD4631"/>
<path d="M29.025 38.8215C28.3275 38.8215 27.6972 38.6712 27.1342 38.3704C26.5775 38.0697 26.1392 37.657 25.8192 37.1323C25.5057 36.6012 25.3489 36.0061 25.3489 35.3471C25.3489 34.688 25.5057 34.0961 25.8192 33.5714C26.1392 33.0404 26.5775 32.6244 27.1342 32.3237C27.6972 32.023 28.3275 31.8726 29.025 31.8726C29.7224 31.8726 30.3495 32.023 30.9062 32.3237C31.4628 32.6244 31.9011 33.0404 32.2211 33.5714C32.541 34.0961 32.701 34.688 32.701 35.3471C32.701 36.0061 32.541 36.6012 32.2211 37.1323C31.9011 37.657 31.4628 38.0697 30.9062 38.3704C30.3495 38.6712 29.7224 38.8215 29.025 38.8215ZM29.025 37.497C29.4217 37.497 29.78 37.4074 30.0999 37.2283C30.4199 37.0427 30.6694 36.7868 30.8486 36.4604C31.0341 36.1341 31.1269 35.763 31.1269 35.3471C31.1269 34.9312 31.0341 34.56 30.8486 34.2337C30.6694 33.9074 30.4199 33.6546 30.0999 33.4755C29.78 33.2899 29.4217 33.1971 29.025 33.1971C28.6282 33.1971 28.2699 33.2899 27.95 33.4755C27.63 33.6546 27.3773 33.9074 27.1917 34.2337C27.0126 34.56 26.923 34.9312 26.923 35.3471C26.923 35.763 27.0126 36.1341 27.1917 36.4604C27.3773 36.7868 27.63 37.0427 27.95 37.2283C28.2699 37.4074 28.6282 37.497 29.025 37.497ZM36.6145 33.1971C36.0771 33.1971 35.6707 33.3155 35.3956 33.5523C35.1205 33.7826 34.9829 34.1313 34.9829 34.5984V35.0111H37.7471V36.2589H34.9829V38.7064H33.428V34.608C33.428 33.7442 33.6968 33.0724 34.2342 32.5925C34.7781 32.1126 35.5364 31.8726 36.509 31.8726C36.8929 31.8726 37.2544 31.9142 37.5935 31.9974C37.9327 32.0742 38.227 32.1893 38.4765 32.3429L37.9967 33.5714C37.6127 33.3219 37.152 33.1971 36.6145 33.1971ZM28.9866 47.8215C28.3019 47.8215 27.6812 47.6744 27.1246 47.38C26.5743 47.0793 26.1392 46.6666 25.8192 46.1419C25.5057 45.6108 25.3489 45.0125 25.3489 44.3471C25.3489 43.6816 25.5057 43.0865 25.8192 42.5618C26.1392 42.0308 26.5743 41.618 27.1246 41.3237C27.6812 41.023 28.3051 40.8726 28.9962 40.8726C29.5784 40.8726 30.1031 40.975 30.5702 41.1797C31.0437 41.3845 31.4404 41.6788 31.7604 42.0628L30.7622 42.9842C30.3079 42.4595 29.7448 42.1971 29.0729 42.1971C28.657 42.1971 28.2859 42.2899 27.9596 42.4755C27.6332 42.6546 27.3773 42.9074 27.1917 43.2337C27.0126 43.56 26.923 43.9312 26.923 44.3471C26.923 44.763 27.0126 45.1341 27.1917 45.4604C27.3773 45.7868 27.6332 46.0427 27.9596 46.2283C28.2859 46.4074 28.657 46.497 29.0729 46.497C29.7448 46.497 30.3079 46.2315 30.7622 45.7004L31.7604 46.6218C31.4404 47.0121 31.0437 47.3096 30.5702 47.5144C30.0967 47.7192 29.5688 47.8215 28.9866 47.8215ZM35.4498 40.8726C36.0705 40.8726 36.6112 40.9942 37.0719 41.2373C37.5326 41.4805 37.8909 41.8388 38.1468 42.3123C38.4028 42.7858 38.5308 43.3585 38.5308 44.0303V47.7064H36.9759V46.0939H33.9045V47.7064H32.3689V44.0303C32.3689 43.3585 32.4968 42.7858 32.7528 42.3123C33.0087 41.8388 33.3671 41.4805 33.8278 41.2373C34.2885 40.9942 34.8291 40.8726 35.4498 40.8726ZM36.9759 44.8462V43.8864C36.9759 43.3297 36.8383 42.9106 36.5632 42.629C36.288 42.3411 35.9137 42.1971 35.4402 42.1971C34.9603 42.1971 34.5828 42.3411 34.3077 42.629C34.0389 42.9106 33.9045 43.3297 33.9045 43.8864V44.8462H36.9759ZM41.8891 47.8215C41.358 47.8215 40.8429 47.7512 40.3438 47.6104C39.8511 47.4632 39.4544 47.2745 39.1537 47.0441L39.6815 45.8731C39.9695 46.0843 40.3118 46.2539 40.7085 46.3818C41.1052 46.5098 41.502 46.5738 41.8987 46.5738C42.3402 46.5738 42.6665 46.5098 42.8777 46.3818C43.0888 46.2475 43.1944 46.0715 43.1944 45.854C43.1944 45.694 43.1304 45.5628 43.0024 45.4604C42.8809 45.3517 42.7209 45.2653 42.5225 45.2013C42.3306 45.1373 42.0682 45.0669 41.7355 44.9901C41.2236 44.8686 40.8045 44.747 40.4782 44.6254C40.1518 44.5038 39.8703 44.3087 39.6336 44.0399C39.4032 43.7712 39.288 43.4129 39.288 42.965C39.288 42.5746 39.3936 42.2227 39.6048 41.9092C39.8159 41.5893 40.1326 41.3365 40.555 41.1509C40.9837 40.9654 41.5052 40.8726 42.1194 40.8726C42.5481 40.8726 42.9672 40.9238 43.3768 41.0262C43.7863 41.1286 44.1446 41.2757 44.4517 41.4677L43.9718 42.6482C43.3512 42.2963 42.7305 42.1203 42.1098 42.1203C41.6747 42.1203 41.3516 42.1907 41.1404 42.3315C40.9357 42.4723 40.8333 42.6578 40.8333 42.8882C40.8333 43.1185 40.9517 43.2913 41.1884 43.4065C41.4316 43.5152 41.7995 43.624 42.2922 43.7328C42.8041 43.8544 43.2232 43.976 43.5495 44.0975C43.8759 44.2191 44.1542 44.4111 44.3845 44.6734C44.6213 44.9357 44.7397 45.2909 44.7397 45.7388C44.7397 46.1227 44.6309 46.4746 44.4133 46.7946C44.2022 47.1081 43.8823 47.3576 43.4535 47.5432C43.0248 47.7288 42.5033 47.8215 41.8891 47.8215ZM50.2476 42.869C49.6717 42.5363 49.0542 42.3219 48.3951 42.2259V47.7064H46.8403V42.2259C46.1812 42.3219 45.5605 42.5363 44.9783 42.869L44.4504 41.7076C44.9111 41.4325 45.4102 41.2245 45.9477 41.0838C46.4852 40.943 47.0386 40.8726 47.6081 40.8726C48.184 40.8726 48.7407 40.943 49.2782 41.0838C49.822 41.2245 50.3211 41.4325 50.7754 41.7076L50.2476 42.869Z" fill="black"/>
</g>
<defs>
<clipPath id="clip0_502_27">
<rect width="50.7321" height="50.7321" fill="white" transform="translate(0.979492 0.453674)"/>
</clipPath>
</defs>
</svg>
