<svg width="101" height="104" viewBox="0 0 101 104" fill="none" xmlns="http://www.w3.org/2000/svg">
<path d="M35.9533 2.78626C36.8826 -1.04097 42.4434 -0.663435 42.8469 3.25427L45.3119 27.1914C45.5851 29.8446 48.6037 31.2328 50.7959 29.7134L75.6364 12.496C78.7493 10.3384 82.5976 13.9665 80.6269 17.201L68.5922 36.9537C67.3571 38.9811 68.4518 41.6241 70.7588 42.1842L98.1282 48.8295C101.493 49.6465 101.762 54.3287 98.5126 55.5255L70.2448 65.9369C68.0714 66.7374 67.2579 69.388 68.6081 71.2699L79.1885 86.0172C81.4148 89.1203 77.7778 93.0414 74.5163 91.0543L55.3524 79.3784C53.3251 78.1432 50.6821 79.238 50.122 81.5449L45.3668 101.13C44.4443 104.929 38.9355 104.595 38.4788 100.712L35.0825 71.844C34.7585 69.0905 31.5176 67.785 29.3755 69.5451L10.8418 84.7738C7.71929 87.3395 3.45059 83.457 5.70961 80.1059L22.9923 54.4685C24.6095 52.0694 22.7884 48.8547 19.8993 49.0084L4.18672 49.8444C0.00228882 50.0671 -0.975786 44.089 3.06142 42.9665L16.4524 39.2434C18.9172 38.5581 19.8415 35.5487 18.1863 33.598L6.33781 19.6337C3.76269 16.5987 7.43567 12.3012 10.8347 14.3721L26.1676 23.7139C28.1949 24.9491 30.8379 23.8544 31.3981 21.5474L35.9533 2.78626Z" fill="black"/>
</svg>
