<svg width="34" height="44" viewBox="0 0 34 44" fill="none" xmlns="http://www.w3.org/2000/svg">
<path d="M27.3306 10.9468C27.0985 13.2399 26.9314 15.1523 26.6993 17.0555C26.5693 18.0953 26.1422 18.9958 24.9725 19.2465C23.9977 19.4507 22.9858 18.9122 22.4009 17.7146C21.8346 16.5635 21.4261 15.3287 20.999 14.1125C19.7643 10.6219 17.8611 7.52108 15.5031 4.68954C14.7696 3.80758 14.0455 2.92563 13.2007 1.90442C13.015 2.52643 12.8665 3.02775 12.7179 3.52907C11.1397 8.97863 10.6012 14.5303 10.8426 20.1841C10.9169 22.013 10.7034 23.879 10.4434 25.6987C10.2763 26.8684 9.83997 28.0567 8.42884 28.3167C7.41692 28.5024 6.41427 27.6668 5.80154 26.1443C5.39306 25.1231 5.12383 24.0369 4.75248 22.9971C4.54824 22.4122 4.25116 21.8645 3.98193 21.2517C0.574793 25.3923 3.17424 39.0487 7.714 41.0447C7.73256 37.3869 9.41292 34.3604 11.3996 31.501C14.2126 27.4533 15.7444 22.9785 16.255 18.1138C16.2922 17.7518 16.3664 17.3804 16.4314 17.0276C16.7471 15.3751 17.4248 15.1059 18.6595 16.3314C19.4579 17.1205 20.1635 18.0953 20.6277 19.1072C22.9301 24.0647 23.8863 29.2079 22.3266 34.6111C22.1502 35.2052 21.751 36.0408 22.0481 36.4678C22.568 37.1177 23.385 36.0036 23.5614 35.5487C24.0255 34.3511 24.3133 33.0978 24.6847 31.8631C24.9168 31.0925 25.056 30.2477 25.4738 29.5793C25.7987 29.0594 26.5043 28.4188 26.9871 28.4652C27.4884 28.5116 28.1847 29.2265 28.3518 29.7835C29.5772 33.9333 29.0016 37.7304 25.1767 40.9519C23.2086 42.6136 20.7855 43.1521 18.3068 43.477C15.5123 43.8391 12.7551 43.9505 9.95138 43.3099C8.61452 43.0036 7.22196 42.7993 6.41427 42.5022C5.60659 42.2052 4.91959 41.6017 4.59466 41.1004C0.463388 34.7225 -0.214325 28.001 2.69149 20.9547C3.29493 19.4971 4.4554 19.1908 5.47661 20.3976C6.2286 21.2889 6.65565 22.4865 7.12912 23.6005C7.45405 24.3804 7.63044 25.2252 7.85325 26.0422C8.13176 27.0634 8.54025 27.2212 8.81876 27.0448C9.16226 26.9427 9.3665 25.7079 9.32937 24.4732C9.26438 22.4401 9.30152 20.3976 9.08799 18.3831C8.46598 12.4786 9.90496 6.94549 12.0031 1.52378C12.523 0.168355 13.1171 0.00124761 14.2312 0.94819C18.7988 4.81951 22.0945 9.53566 23.5892 15.403C23.8213 16.2942 23.8956 17.2969 25.0282 18.0024C25.1396 17.139 25.2324 16.4242 25.3345 15.7186C25.5945 13.9733 25.7616 12.2094 26.1515 10.5012C26.3929 9.47067 27.1077 9.25714 27.8597 9.99984C28.8438 10.9746 29.8093 12.0516 30.4499 13.2677C32.8358 17.8168 33.6528 22.7557 33.6342 27.8432C33.6157 31.8445 32.873 35.7251 31.0348 39.2994C30.4128 40.5155 29.3637 41.5182 28.4725 42.5858C28.0733 43.0686 27.1634 42.9107 27.5812 41.8338C27.6183 41.741 27.6648 41.6296 27.7298 41.5367C31.1833 36.9041 31.5268 31.4824 31.5732 26.0236C31.6104 21.6695 30.9791 17.399 28.9459 13.4627C28.5189 12.655 27.9711 11.9309 27.3306 10.9468ZM26.8292 29.9878C26.2815 31.8074 25.8544 33.3113 25.3624 34.806C24.9725 35.9851 24.3783 37.0527 23.2086 37.6376C21.8531 38.3246 20.5349 37.5633 20.4606 36.0408C20.4327 35.4187 20.4606 34.7782 20.5813 34.1747C21.5282 29.3286 21.0826 24.631 19.1887 20.0727C18.8638 19.2929 18.3903 18.578 17.9168 17.7239C17.7497 18.0024 17.629 19.0144 17.6105 19.4507C17.4898 22.7557 17.1184 26.0236 15.3824 28.9387C14.3426 30.6747 13.1728 32.3365 12.0402 34.0262C10.7869 35.9108 9.67287 37.8604 9.26438 40.1256C8.98587 41.676 9.10656 41.7503 10.592 42.1309C13.7391 42.9293 16.8214 42.4187 19.8943 41.806C23.3942 41.1097 25.5759 38.8073 26.8757 35.6323C27.5905 33.8962 27.3863 32.0952 26.8292 29.9878Z" fill="#CD4631"/>
</svg>
