<svg width="56" height="56" viewBox="0 0 56 56" fill="none" xmlns="http://www.w3.org/2000/svg">
<path d="M53.5522 34.7775C50.7778 34.0652 46.1038 33.3028 44.3792 32.1281C43.6668 31.6407 43.7543 31.1033 43.8793 30.7284C44.0042 30.3784 44.7166 30.016 45.154 30.041C46.1413 30.0785 47.1286 30.291 48.0784 30.5534C50.1904 31.1283 52.29 31.7282 54.3645 32.4155C55.4643 32.7779 55.8142 33.6153 55.1769 34.1526C54.802 34.4651 54.452 34.7775 53.5522 34.7775Z" fill="#CD4631"/>
<path d="M9.81126 54.0861C9.93623 53.4238 10.1862 53.0738 10.5486 52.5615C11.9608 50.5869 13.4355 48.6498 14.8852 46.7127C14.9727 46.6002 15.0726 46.4752 15.1851 46.3878C15.685 45.9629 16.2474 45.463 16.8973 45.9254C17.5471 46.4003 17.3222 47.1001 16.9722 47.6625C15.5225 50.0245 14.0479 52.374 12.5482 54.711C12.3232 55.0734 11.9358 55.3859 11.5484 55.5733C10.5861 56.0357 9.73627 55.3984 9.81126 54.0861Z" fill="#CD4631"/>
<path d="M41.0417 53.6488C41.0417 54.2112 40.6043 54.6111 40.2793 54.6736C39.8419 54.7611 39.467 54.6861 38.8421 54.2612C38.6297 54.1237 38.5047 53.7863 38.3797 53.5239C37.4674 51.5493 36.5426 49.5872 35.6553 47.6001C35.4303 47.1127 35.2054 46.5503 35.2429 46.0379C35.2804 45.5755 35.5678 44.9132 35.9427 44.7507C36.3052 44.5882 36.7926 44.5383 37.3674 45.1006C37.5799 45.3006 37.7799 45.638 37.9173 45.9505C38.8171 48.0375 39.7169 50.1246 40.5918 52.2241C40.7542 52.624 40.8542 53.0615 41.0417 53.6488Z" fill="#CD4631"/>
<path d="M1.37543 36.4273C0.800548 36.2649 0.425627 35.9899 0.338146 35.615C0.22567 35.1401 0.463119 34.5027 0.738061 34.0528C0.950516 33.7154 1.43791 33.503 1.85033 33.3655C3.91239 32.6781 5.98695 32.0033 8.07401 31.3659C8.42393 31.2534 8.87384 31.2159 9.21126 31.3284C9.76115 31.5159 9.9986 31.9533 9.54869 32.4782C9.29875 32.7781 9.01131 33.0905 8.67388 33.253C6.72429 34.2278 4.76221 35.1651 2.78763 36.0899C2.4252 36.2524 1.93781 36.6023 1.37543 36.4273Z" fill="#CD4631"/>
<path d="M43.7162 14.982C43.4412 14.8695 43.2038 14.4196 43.1913 14.1197C43.1788 13.7073 43.3038 13.2074 43.5537 12.87C44.716 11.2703 45.9407 9.69562 47.1529 8.13345C47.3279 7.896 47.5654 7.70854 47.8028 7.52108C48.3402 7.10867 49.04 6.74625 49.5149 7.37111C49.7899 7.73354 49.8774 8.65834 49.6149 8.97078C48.0153 10.9204 46.2906 12.7825 44.5785 14.6446C44.441 14.807 44.1661 15.0695 43.7162 14.982Z" fill="#CD4631"/>
<path d="M3.65004 12.27C4.34989 12.4825 4.88728 12.6074 5.39967 12.7949C6.88686 13.3323 8.37404 13.8822 9.84873 14.4446C10.2611 14.607 10.6986 14.7695 11.036 15.0319C11.2734 15.2194 11.5359 15.6943 11.4484 15.8693C11.2984 16.1567 11.0735 16.5191 10.5611 16.4816C10.3486 16.4691 10.0737 16.4566 9.83623 16.3941C8.16159 15.9442 6.48694 15.5193 4.82479 15.0194C4.26241 14.857 3.67504 14.6195 3.22513 14.2571C2.9002 13.9947 2.60027 13.4073 2.68775 13.0574C2.76273 12.7324 3.03767 12.27 3.65004 12.27Z" fill="#CD4631"/>
<path d="M26.5201 7.09592C26.5076 7.24589 26.4951 7.39586 26.4451 7.53333C26.2327 8.1457 26.0952 8.83306 25.2329 8.77057C24.3206 8.70808 24.2831 7.95824 24.2956 7.34587C24.3331 5.87118 24.4705 4.3965 24.583 2.90931C24.633 2.37192 24.6955 1.82204 24.8455 1.30965C24.9954 0.784761 25.2079 0.247375 25.9327 0.334856C26.6076 0.422338 26.8325 0.872243 26.845 1.47212C26.845 2.12198 26.6451 5.87118 26.5201 7.09592Z" fill="#CD4631"/>
</svg>
