<svg width="29" height="23" viewBox="0 0 29 23" fill="none" xmlns="http://www.w3.org/2000/svg">
<path d="M9.56493 10.6501C10.6613 11.1324 11.5164 11.856 12.1304 12.8208C12.7443 13.7856 13.0513 14.9258 13.0513 16.2414C13.0513 18.1271 12.4593 19.662 11.2752 20.846C10.0912 21.9862 8.57823 22.5563 6.73638 22.5563C4.89453 22.5563 3.35965 21.9643 2.13175 20.7802C0.947707 19.5962 0.355684 18.0832 0.355684 16.2414C0.355684 15.3643 0.465318 14.4872 0.684586 13.6102C0.903854 12.7331 1.38624 11.4175 2.13175 9.66335L5.94701 0.190978H12.4593L9.56493 10.6501ZM25.0891 10.6501C26.1854 11.1324 27.0406 11.856 27.6545 12.8208C28.2685 13.7856 28.5755 14.9258 28.5755 16.2414C28.5755 18.1271 27.9834 19.662 26.7994 20.846C25.6153 21.9862 24.1024 22.5563 22.2605 22.5563C20.4187 22.5563 18.8838 21.9643 17.6559 20.7802C16.4719 19.5962 15.8798 18.0832 15.8798 16.2414C15.8798 15.3643 15.9895 14.4872 16.2087 13.6102C16.428 12.7331 16.9104 11.4175 17.6559 9.66335L21.4712 0.190978H27.9834L25.0891 10.6501Z" fill="#CD4631"/>
</svg>
