<svg width="189" height="189" viewBox="0 0 189 189" fill="none" xmlns="http://www.w3.org/2000/svg">
<g clip-path="url(#clip0_502_380)">
<path d="M38.9757 143.307C34.5553 137.316 30.1563 145.373 32.1725 150.03C32.9771 151.889 33.0548 154.129 35.1921 154.756C35.8536 154.95 36.4439 155.745 37.1749 155.745C38.4075 155.745 38.8658 155.447 39.958 155.073" stroke="#4D4D4D" stroke-width="2.05671" stroke-linecap="round" stroke-linejoin="round"/>
<path d="M40.6128 156.082C41.5113 160.81 41.8601 165.985 44.1418 170.202C45.8684 173.393 49.4047 176.478 53.037 176.944C55.3985 177.247 57.3401 177.91 59.7857 177.336C61.6634 176.896 63.383 176.116 65.2065 175.581C66.716 175.138 68.0235 174.057 69.0993 172.891C70.4738 171.401 71.0334 169.456 72.1189 167.923C72.8539 166.886 73.0285 164.561 73.0285 163.291C73.0285 161.593 73.3559 160.06 73.3559 158.36C73.3559 154.691 72.0462 151.141 72.0462 147.509C72.0462 146.447 71.4517 145.431 71.3913 144.315C71.3123 142.855 70.9772 140.922 70.7183 139.459C70.4794 138.11 70.0816 136.709 70.0816 135.313C70.0816 133.013 69.21 135.314 68.117 134.566" stroke="#4D4D4D" stroke-width="2.05671" stroke-linecap="round" stroke-linejoin="round"/>
<path d="M36.0288 138.6C35.2275 135.618 35.7994 132.483 34.5553 129.672C33.8002 127.967 34.6761 125.376 34.9737 123.696C35.1882 122.485 35.0465 121.171 35.0465 119.942C35.0465 118.877 35.857 118.277 36.0106 117.252C36.1588 116.263 35.6057 115.261 34.719 114.806C33.8656 114.367 34.2568 114.648 34.8646 114.059C35.2057 113.728 36.4996 113.145 36.338 112.564C36.2274 112.167 35.7191 112.344 37.0474 112.041C38.1498 111.79 39.5387 110.697 40.6128 110.697C41.7515 110.697 42.4508 110.456 43.6324 110.024C44.9152 109.556 45.5098 110.8 46.361 110.641C47.3678 110.453 48.1157 109.053 49.2715 109.053C49.3963 109.053 49.9149 109.666 50.5085 109.688C51.4144 109.723 52.4723 110.334 53.3826 109.95C53.9889 109.693 53.477 110.849 54.2012 111.014C55.8148 111.382 57.3837 109.733 58.7852 109.203C60.1325 108.693 59.5607 109.245 59.2036 110.024C58.9789 110.515 61.9129 110.516 62.4779 110.622C63.9971 110.906 63.2689 110.812 62.4052 111.537C61.2507 112.507 62.9312 112.714 63.7149 112.714C65.2906 112.714 64.8876 112.599 64.8427 113.797C64.795 115.07 65.0637 114.958 65.825 115.739C66.3361 116.264 66.3826 117.1 66.971 117.57C67.5344 118.02 68.7722 117.083 68.4081 118.298C68.0503 119.492 67.2123 120.498 66.8801 121.716C66.664 122.508 68.379 122.396 68.7719 122.799C69.8149 123.87 68.6923 124.26 68.4626 125.321C68.2857 126.138 68.9079 126.398 69.0811 127.02C69.2838 127.749 68.1205 128.081 68.5172 128.851C68.9492 129.688 69.1016 129.519 68.4445 130.532" stroke="#4D4D4D" stroke-width="2.05671" stroke-linecap="round" stroke-linejoin="round"/>
<path d="M32.7545 114.731C32.0252 115.169 29.485 116.489 31.4448 117.495C32.2642 117.916 31.26 117.352 31.463 118.915C31.7029 120.762 32.2573 120.545 30.9536 122.295C29.9039 123.705 30.9025 124.319 30.2078 125.825C29.8132 126.68 29.5157 127.829 29.4802 128.776C29.4249 130.253 32.6894 130.873 31.8995 132.045C31.5569 132.553 30.5609 133.266 30.608 133.968C30.6835 135.093 32.4983 136.221 33.2093 136.919C33.5585 137.262 34.5664 138.171 33.9915 138.6C33.339 139.087 33.9926 139.039 34.3189 139.609C34.5884 140.079 35.2284 140.953 35.2284 140.953C35.2284 140.953 34.9174 138.541 34.519 137.405C34.164 136.392 33.5723 135.679 32.9 134.902C32.6353 134.596 33.4041 134.251 33.5913 134.024C34.9128 132.421 35.3377 128.141 33.0819 126.983C32.675 126.774 33.214 128.004 33.5731 128.29C34.2457 128.828 34.3483 125.944 34.3189 125.676C34.1403 124.048 33.5746 122.969 32.4634 121.828C31.7041 121.049 31.9565 121.205 32.7727 121.1C33.8107 120.967 35.0385 119.861 33.9005 118.952C33.1031 118.315 34.246 121.305 34.7191 121.791" stroke="#4D4D4D" stroke-width="2.05671" stroke-linecap="round" stroke-linejoin="round"/>
<path d="M38.3209 140.617C38.7916 141.236 39.5551 141.74 39.958 142.373C40.3278 142.953 40.3115 143.696 40.6129 144.315C41.3739 145.878 41.9226 143.268 41.9226 142.56C41.9226 141.949 41.3119 139.447 40.6857 141.215C40.5455 141.611 40.9341 140.496 40.9403 140.206C40.9633 139.147 40.9368 138.085 40.6129 137.069C40.098 135.453 38.8354 133.563 37.666 132.362C37.3727 132.061 38.2439 133.051 38.6483 133.146C39.5541 133.359 39.9426 132.719 39.958 131.876C39.9689 131.287 38.6748 126.457 37.4114 127.917C37.3515 127.986 39.6306 128.972 39.6306 127.002C39.6306 126.184 38.1383 125.121 39.6306 126.142C41.0799 127.135 42.8403 126.173 43.6871 124.835C44.7717 123.122 42.6654 122.852 44.3966 124.63C45.9611 126.236 48.3474 125.206 49.5809 123.658C49.8975 123.261 51.1242 124.845 52.4004 124.611C53.0855 124.485 55.5017 122.661 56.0022 123.304C57.5366 125.273 60.8233 124.898 62.8782 124.816C63.6684 124.785 67.1217 122.361 65.8251 121.529C65.0156 121.01 64.8325 123.425 66.1525 122.388C67.9637 120.966 66.8939 119.083 65.4977 118.018C64.0868 116.942 65.6845 117.736 65.4249 116.337C65.0912 114.538 62.9737 112.022 60.9864 113.274C58.3658 114.925 62.0778 116.622 62.0778 114.581C62.0778 111.869 57.1079 110.759 55.2382 111.78C53.3715 112.799 56.0683 112.932 55.1108 112.527C53.8901 112.011 52.4554 111.803 51.1453 111.724C50.6182 111.692 49.5898 111.918 49.1443 111.537C48.4703 110.96 46.846 110.463 45.9973 110.192C43.0712 109.26 43.4216 111.909 44.5239 113.984C45.5797 115.971 41.1334 114.725 40.3037 114.6C38.0801 114.264 36.7604 117.383 39.1031 117.383C39.973 117.383 39.3036 117.014 38.9212 116.916C37.693 116.601 36.6085 117.098 35.7196 117.981C33.6912 119.994 34.517 124.397 37.9207 123.285C39.0898 122.903 37.6919 122.202 37.1203 122.202C35.371 122.202 33.2285 123.306 32.6454 125.078C31.5663 128.357 39.6859 124.176 40.6129 123.397C41.23 122.879 41.8911 122.343 41.1222 121.716C40.5177 121.223 38.6768 120.072 39.4487 120.072C39.8835 120.072 41.6744 121.744 42.2501 121.978C43.1944 122.361 44.8471 122.835 45.7063 121.978C47.7073 119.982 43.7952 119.055 43.96 119.512C45.1963 122.939 51.2735 120.904 53.1644 119.512C53.8976 118.973 53.9705 118.076 52.9098 118.653C51.7575 119.279 50.811 120.77 51.309 122.127C52.4857 125.333 59.6581 123.719 60.186 120.67C60.3489 119.729 58.6529 119.304 58.0395 119.662C56.4681 120.578 57.8351 122.33 59.0582 122.557C62.2568 123.148 67.8126 119.338 62.86 117.159C61.7869 116.687 59.7878 116.427 59.0218 117.607C58.0842 119.051 60.8967 118.984 61.5503 118.858C67.254 117.76 60.5498 114.532 58.8217 113.554C57.4332 112.769 53.9178 110.449 55.1472 113.984C55.304 114.435 54.3462 113.068 54.1831 112.901C53.2324 111.924 51.8841 111.198 50.5814 110.921C49.0413 110.593 47.1097 110.597 45.9428 111.855C45.1754 112.682 46.1024 112.963 46.8341 113.031C47.0819 113.054 48.5752 113.107 47.9073 112.527C46.9232 111.672 45.44 111.678 44.2328 111.537C43.3482 111.434 41.3455 111.143 41.0313 112.434C40.7053 113.772 41.9398 115.937 42.9777 116.673C44.0912 117.463 43.1426 116.751 42.5047 116.486C41.4982 116.07 39.89 115.533 38.7938 115.814C37.4936 116.148 40.3877 117.306 40.5401 117.346C42.7439 117.923 45.3387 117.529 47.4526 116.748C47.9627 116.559 50.1063 115.531 49.3808 114.656C49.0998 114.317 48.1872 113.744 47.8892 114.395C47.1401 116.029 52.7114 115.262 53.31 114.88C53.9207 114.491 50.8906 113.548 51.309 115.739C51.7613 118.108 55.571 118.156 56.9117 116.673C58.265 115.177 55.6646 114.985 56.4751 116.337C57.3964 117.874 58.1178 116.124 55.7839 115.571C52.2972 114.745 50.0602 116.238 46.725 116.711C44.4464 117.033 44.6405 118.038 43.2324 119.587C41.8513 121.106 40.5131 120.446 38.9939 121.324C37.5097 122.181 38.4814 126.019 38.3027 127.487C38.1312 128.896 35.4059 127.817 34.9374 129.878C34.6586 131.105 35.4859 132.405 36.3745 133.165C36.7844 133.516 38.1887 133.753 38.4118 134.211C38.7129 134.829 37.0499 134.117 36.3927 134.267C35.5211 134.466 35.6931 135.736 35.8833 136.377C36.435 138.239 37.6731 139.652 37.9935 141.626" stroke="#4D4D4D" stroke-width="2.05671" stroke-linecap="round" stroke-linejoin="round"/>
<path d="M38.6481 150.703C37.9792 149.758 37.6214 149.226 37.6658 148.088C37.6946 147.346 38.11 147.76 37.5202 147.154C37.0728 146.695 36.0477 146.629 35.7012 147.341" stroke="#4D4D4D" stroke-width="2.05671" stroke-linecap="round" stroke-linejoin="round"/>
<path d="M47.8164 139.272C48.8628 137.897 50.0673 137.465 51.6728 136.994C52.5396 136.739 54.1674 136.85 54.0376 136.583" stroke="#4D4D4D" stroke-width="2.05671" stroke-linecap="round" stroke-linejoin="round"/>
<path d="M63.8608 135.911C65.1834 135.646 66.6875 135.178 67.79 136.247C68.1815 136.626 70.2276 137.591 69.0997 137.591" stroke="#4D4D4D" stroke-width="2.05671" stroke-linecap="round" stroke-linejoin="round"/>
<path d="M53.3828 143.643C53.3828 143.643 53.3829 143.643 53.3829 143.643" stroke="#4D4D4D" stroke-width="2.05671" stroke-linecap="round" stroke-linejoin="round"/>
<path d="M66.1523 143.307C66.1524 143.307 66.1524 143.307 66.1524 143.307" stroke="#4D4D4D" stroke-width="2.05671" stroke-linecap="round" stroke-linejoin="round"/>
<path d="M60.5861 140.953C60.5861 145.102 63.4776 149.075 64.5335 152.869C64.9829 154.484 64.4015 154.737 62.7144 154.737C61.0718 154.737 60.2327 154.609 59.2764 156.082" stroke="#4D4D4D" stroke-width="2.05671" stroke-linecap="round" stroke-linejoin="round"/>
<path d="M112.464 101.996C110.312 100.441 108.977 100.65 107.015 102.468C105.181 104.166 104.591 107.315 106.239 109.338C108.795 112.477 114.574 111.529 116.471 108.235C117.391 106.637 117.109 107.881 117.716 108.371C119.224 109.591 120 109.682 121.515 108.246C123.337 106.519 124.817 99.5553 120.324 100.475C119.825 100.577 118.221 101.687 118.976 101.533C119.975 101.328 119.954 100.098 119.706 99.3232C119.045 97.2556 116.153 96.247 114.331 97.0155C112.97 97.5897 112.624 99.2604 111.53 99.8924C110.472 100.503 106.277 104.08 109.526 103.693" stroke="#4D4D4D" stroke-width="1.71392" stroke-linecap="round" stroke-linejoin="round"/>
<path d="M86.3423 111.741C84.6814 111.417 82.7247 110.932 82.3051 113.188C81.993 114.865 83.7073 116.973 85.4853 116.692C86.1052 116.594 88.1477 115.641 88.5514 116.045C89.5654 117.059 90.1768 115.889 90.7985 114.902C91.5244 113.749 90.4254 110.039 88.9132 109.703C87.9524 109.49 84.1627 112.194 84.6284 112.426" stroke="#4D4D4D" stroke-width="1.71392" stroke-linecap="round" stroke-linejoin="round"/>
<path d="M113.835 48.1034C115.715 45.6631 119.1 43.1096 122.411 43.2938C123.886 43.3759 124.607 46.6961 125.079 47.7598C126.753 51.5329 118.32 52.0244 120.01 55.833C120.331 56.5559 121.293 56.8291 121.916 57.2263C123.238 58.0692 123.44 57.6717 123.44 56.3483C123.44 55.324 121.22 52.6602 122.411 51.9587C125.643 50.0549 124.946 45.0115 120.867 45.0115C117.733 45.0115 113.149 45.5878 113.149 49.6493C113.149 51.6734 114.861 51.0777 115.703 49.9929C116.72 48.6832 117.443 47.0728 119.324 47.0728C120.644 47.0728 123.231 46.5623 123.44 48.4469C123.476 48.7666 124.165 50.2837 124.05 50.4318C123.573 51.046 123.096 51.9719 122.754 52.7412C122.182 54.0308 120.353 53.8606 120.353 55.4895C120.353 56.5774 120.412 56.7654 121.039 57.5507C121.247 57.8105 122.458 58.5044 122.068 57.7225" stroke="#CD4631" stroke-width="2.05671" stroke-linecap="round" stroke-linejoin="round"/>
<path d="M124.47 62.532C124.541 65.3905 125.939 63.6402 124.889 62.7992C124.194 62.2424 124 63.7666 124.813 64.1738C125.727 64.6311 125.515 62.325 125.232 62.6083C124.497 63.3454 126.059 65.3352 124.47 64.9374" stroke="#CD4631" stroke-width="2.05671" stroke-linecap="round" stroke-linejoin="round"/>
<path d="M106.397 17.9861C101.93 12.2771 94.1405 14.0435 89.3346 18.4996C84.655 22.8387 81.779 33.7197 86.0941 39.1233C87.2944 40.6263 88.3514 42.296 89.7667 43.6023C90.2716 44.0683 88.4702 44.0855 87.7909 44.1863C85.6885 44.4985 84.6532 46.7712 85.2275 48.7275C85.5288 49.7537 86.3708 50.459 87.3868 50.6889C88.0877 50.8474 88.2412 51.095 87.4353 51.1757C85.5456 51.3648 84.2009 51.4661 82.9054 53.0514C80.9929 55.3916 81.8567 57.4125 84.1229 58.9351C86.4137 60.4741 85.9906 61.1527 83.8582 62.4384C82.1685 63.4573 81.5342 65.5247 80.9492 67.383C79.9373 70.5971 78.4961 75.4419 81.3428 78.02C84.9069 81.248 90.2425 81.3729 94.6754 80.549C96.1483 80.2752 97.9016 80.1499 99.0524 79.0749C99.3631 78.7847 100.207 77.7443 99.3218 77.5553C97.7445 77.2184 97.1723 80.0466 97.0902 81.0272C96.5083 87.9773 106.885 90.3502 111.89 89.4851C115.142 88.923 117.986 87.3529 120.54 85.3181C122.55 83.7168 125.378 81.9405 126.71 79.661C127.353 78.561 127.118 79.8443 127.494 80.8468C128.396 83.2455 130.998 82.7859 132.959 82.1963C135.61 81.3996 137.985 79.6957 139.585 77.4242C139.82 77.0913 141.005 74.8905 141.204 75.1901C143.637 78.8573 145.093 73.6977 147.173 72.4504C147.521 72.2417 148.173 74.6128 148.374 74.9994C149.893 77.9215 151.477 80.5468 154.904 81.405C162.239 83.2421 169.919 80.1322 174.994 74.8465C177.131 72.6203 178.31 69.5428 175.605 67.0765C174.95 66.4798 177.014 67.1707 177.4 67.1427C179.52 66.9882 182.592 66.7214 184.136 65.0637C185.896 63.1744 186.844 61.4989 186.148 58.8569C185.661 57.0089 184.592 55.9111 182.84 55.2194C182.069 54.915 180.517 54.8585 181.646 54.1448C182.778 53.4286 183.304 51.623 183.407 50.3512C183.568 48.3438 182.19 46.9767 180.408 46.2964C179.604 45.9898 177.133 46.3081 177.547 46.2667C178.922 46.129 179.678 40.7367 179.576 39.7069C179.12 35.1299 174.536 31.5635 169.887 31.8614C169.116 31.9108 168.327 32.3688 168.911 31.5728C169.581 30.6589 169.615 29.0203 169.884 27.9634C171.397 22.0104 168.953 16.9813 164.307 13.174C160.484 10.0404 154.595 8.31697 149.994 10.4799C149.697 10.6196 147.765 12.8628 148.349 12.8044C149.24 12.7152 148.955 10.5752 148.834 10.1043C148.267 7.89756 145.67 6.06833 143.776 5.09661C140.985 3.6649 136.947 4.1585 134.014 4.96728C131.43 5.68002 129.482 7.36604 128.149 9.6282C127.442 10.8269 128.041 11.8285 127.166 11.026C125.747 9.72469 125.225 8.87204 123.006 9.05409C120.392 9.26862 118.006 9.95347 115.93 11.5886C114.866 12.4258 113.915 14.2429 114.054 15.6395C114.056 15.6608 113.762 14.3166 113.554 13.793C112.436 10.9722 108.697 11.0681 106.712 13.0553C105.876 13.8925 105.398 15.1662 105.304 16.3396C105.254 16.9533 104.911 18.9065 104.741 17.2036" stroke="#4D4D4D" stroke-width="1.71392" stroke-linecap="round" stroke-linejoin="round"/>
<path d="M133.329 28.1796C132.825 25.2976 136.006 24.979 138.284 24.4007C140.092 23.9416 141.814 23.5597 143.544 24.5534C144.669 25.1999 146.251 26.8567 146.345 28.1796C146.696 33.1018 142.389 36.081 137.655 36.081C135.672 36.081 135.747 39.6503 135.73 40.8906C135.702 42.8941 135.231 44.8313 135.463 46.8453C135.527 47.3994 135.856 50.4559 136.759 49.4218C138.256 47.709 138.474 44.066 138.474 41.9212C138.474 39.8789 137.904 38.0975 140.018 37.2834C141.888 36.5632 144.161 35.7358 145.411 34.0198C147.209 31.5533 147.561 28.1214 145.659 25.6221C144.052 23.5102 139.557 23.4156 137.102 23.3701C133.883 23.3104 132.405 25.1643 130.775 27.8361C129.799 29.4353 130.291 32.1273 132.642 31.5387C135.155 30.9096 136.903 29.4476 138.665 27.6834C139.607 26.7394 142.224 27.3854 143.277 27.9124C144.53 28.5398 143.783 30.7054 143.429 31.615C142.016 35.2541 137.318 35.1328 136.149 38.4095C135.266 40.8848 135.387 43.4363 135.387 46.0246C135.387 46.8239 134.868 49.4048 136.416 48.7156C139.368 47.4015 137.985 41.8139 138.131 39.1729C138.215 37.6595 140.213 37.4433 141.219 36.9399C142.435 36.3308 144.12 34.5458 144.725 33.3327C145.547 31.6865 145.698 29.1767 144.478 27.6834C142.957 25.8221 140.373 26.9621 138.817 25.7748C137.466 24.7436 134.625 28.2552 133.672 29.2102C133.297 29.5857 132.877 29.9152 132.471 30.2408C132.286 30.3887 131.748 31.4623 131.613 31.4623C131.19 31.4623 132.111 30.759 132.452 30.508C133.601 29.6618 134.68 28.6959 135.52 27.5307C136.456 26.2333 137.972 26.8054 139.503 26.8054C140.383 26.8054 142.37 26.4235 143.105 26.9963C144.22 27.8644 144.626 28.6454 142.934 29.2102" stroke="#CD4631" stroke-width="2.05671" stroke-linecap="round" stroke-linejoin="round"/>
<path d="M137.102 54.9758C132.098 56.1034 139.328 58.1539 138.398 55.2431C138.083 54.2553 136.671 54.6115 137.121 55.6631C137.319 56.1263 139.124 56.9107 137.445 56.3504" stroke="#CD4631" stroke-width="2.05671" stroke-linecap="round" stroke-linejoin="round"/>
<path d="M157.774 65.8487C160.128 65.8487 163.18 65.2992 165.469 65.9676C166.806 66.3581 167.514 67.2073 168.473 68.1083C169.61 69.1753 170.969 70.5985 170.801 72.2825C170.596 74.337 167.949 75.3474 166.3 75.8978C163.947 76.6835 160.816 76.5391 158.367 76.1713C156.437 75.8814 153.022 75.2726 152.264 73.0793C151.648 71.297 152.977 70.3439 154.496 69.9159C156.846 69.254 159.306 68.7348 161.716 68.3699C162.884 68.1931 165.538 67.4115 166.704 68.2034C167.192 68.5354 167.684 69.9852 167.796 70.5462C167.976 71.4478 167.498 71.9481 166.74 72.3658C165.077 73.2812 163.054 73.705 161.229 73.0198C158.81 72.1113 161.891 70.0207 163.236 69.9278C164.822 69.8183 165.428 70.4515 165.991 71.9376C166.389 72.988 166.377 73.6467 165.053 73.7572C163.477 73.8887 161.837 73.7523 160.339 73.2458C158.006 72.4573 154.979 71.0788 153.38 69.1072C152.635 68.1888 152.644 66.9601 152.644 65.8487C152.644 64.0056 152.659 64.1549 154.757 64.1362C158.386 64.1039 162.006 63.9222 165.635 63.9222C166.772 63.9222 167.825 63.8062 168.841 64.3979C169.541 64.8052 169.568 64.9797 169.53 65.7774C169.394 68.6483 166.214 69.3819 163.973 70.13" stroke="#4D4D4D" stroke-width="1.02835" stroke-linecap="round"/>
<path d="M94.2886 39.5188C93.9555 37.8093 92.885 36.2407 92.246 34.5953C91.6902 33.1639 91.5098 31.3059 91.5098 29.767C91.5098 26.8243 91.9229 23.6457 94.5498 21.7515C96.5622 20.3006 100.26 19.5974 102.245 21.585C104.175 23.5177 103.882 26.5612 104.442 29.0297C105.025 31.5991 103.736 35.5965 100.915 36.3911C99.9959 36.65 97.6446 37.2326 96.9605 36.2841C95.9684 34.9084 95.6409 32.8432 95.1911 31.2417C94.708 29.5215 93.0024 25.4024 95.773 24.57C99.2141 23.5362 100.652 29.227 100.867 31.5509C100.994 32.9136 101.099 34.1153 100.179 35.19C99.7954 35.6378 98.1227 36.8814 97.6018 36.07C96.879 34.944 96.3517 29.5406 97.9224 29.4578C98.2928 29.4383 99.3646 29.2968 99.585 29.6719C99.982 30.3479 99.4988 31.4176 98.8724 31.6936C97.641 32.2362 97.2812 32.1581 97.2812 30.8492C97.2812 29.6572 97.7969 28.755 99.1574 29.3389C99.8276 29.6265 99.9048 30.943 100.012 31.5271C100.352 33.368 100.274 35.2536 100.274 37.1165C100.274 39.9934 98.1242 41.5707 96.2124 43.586" stroke="#4D4D4D" stroke-width="1.02835" stroke-linecap="round"/>
<path d="M95.5696 75.2675C93.0414 75.2675 90.82 75.4747 88.7298 73.9355C87.3007 72.8831 86.8062 71.8803 86.8062 70.0824C86.8062 68.8058 86.9505 67.7787 87.8749 66.8001C88.7338 65.8907 89.5171 65.8662 90.7248 65.5871C91.1702 65.4841 94.323 64.6163 94.6671 65.4206C95.1705 66.5968 94.5021 68.6038 93.8597 69.6067C93.1473 70.7188 92.5182 71.8129 91.2948 72.4371C91.0228 72.5758 88.9801 73.3578 88.9436 72.6987C88.8751 71.4644 89.0527 70.5438 89.7986 69.5353C90.2468 68.9293 91.9393 69.2409 92.5772 69.2737C94.8891 69.3924 93.8573 75.1479 91.3423 72.5322C90.8022 71.9706 90.7167 70.849 91.1048 70.2013C92.5186 67.8414 95.032 66.8212 97.4933 66.0627" stroke="#4D4D4D" stroke-width="1.02835" stroke-linecap="round"/>
<path d="M171.881 44.8705C173.013 44.1791 174.019 43.3069 174.019 41.8736C174.019 40.9568 174.247 40.0462 173.473 39.4118C172.904 38.946 168.541 37.2073 168.462 38.8767C168.406 40.0367 168.462 41.2117 168.462 42.373C168.462 43.6366 169.803 43.3876 170.765 43.372C172.551 43.3432 172.77 42.0041 172.083 40.3989C171.714 39.5353 170.464 38.9279 169.981 40.2562C169.73 40.9493 173.189 40.3751 170.813 40.3751" stroke="#4D4D4D" stroke-width="1.02835" stroke-linecap="round"/>
<path d="M178.49 61.2012C178.961 61.2012 180.288 61.0392 180.447 61.7545C180.588 62.3876 180.358 62.7578 179.901 63.1138C178.899 63.8944 176.265 63.515 176.853 61.8023C177.271 60.5838 178.505 59.7742 179.785 59.7258C180.094 59.7141 180.476 59.6184 180.638 59.9102C180.795 60.1929 180.712 60.752 180.577 61.0236C180.187 61.8048 179.456 62.4755 178.64 62.581C177.496 62.7287 174.807 63.256 174.807 61.57" stroke="#4D4D4D" stroke-width="1.02835" stroke-linecap="round"/>
</g>
<defs>
<clipPath id="clip0_502_380">
<rect width="188.531" height="188.531" fill="white"/>
</clipPath>
</defs>
</svg>
