<svg width="89" height="24" viewBox="0 0 89 24" fill="none" xmlns="http://www.w3.org/2000/svg">
<path d="M12.4289 0.564331C10.0916 0.564331 7.80679 1.24786 5.86338 2.52846C3.92005 3.80913 2.40536 5.62936 1.51086 7.75894C0.616436 9.88858 0.382414 12.2319 0.838428 14.4927C1.29437 16.7535 2.41987 18.8302 4.0726 20.4601C5.72534 22.09 7.83106 23.2 10.1234 23.6497C12.4158 24.0994 14.7919 23.8687 16.9513 22.9865C19.1107 22.1044 20.9563 20.6106 22.2549 18.694C23.5534 16.7774 24.2465 14.5241 24.2465 12.219C24.2465 9.12797 23.0014 6.16359 20.7852 3.97793C18.5689 1.7922 15.5632 0.564331 12.4289 0.564331ZM17.852 17.372C17.8017 17.4544 17.7353 17.526 17.6567 17.5829C17.5781 17.6397 17.4888 17.6805 17.394 17.703C17.2992 17.7255 17.2008 17.7292 17.1046 17.7139C17.0083 17.6986 16.9161 17.6646 16.8334 17.6138C14.0606 15.9396 10.5709 15.5675 6.45882 16.4884C6.36526 16.5104 6.26825 16.5139 6.17331 16.4986C6.07843 16.4833 5.98748 16.4496 5.90594 16.3995C5.82434 16.3493 5.75366 16.2836 5.69797 16.2062C5.64228 16.1289 5.60282 16.0414 5.58172 15.9489C5.55924 15.8561 5.55566 15.7598 5.57099 15.6655C5.58639 15.5713 5.62043 15.481 5.67123 15.3997C5.72204 15.3186 5.78865 15.248 5.8671 15.1922C5.94561 15.1364 6.0345 15.0964 6.12869 15.0745C10.6275 14.0607 14.4944 14.4978 17.6068 16.3767C17.7728 16.4769 17.8919 16.6379 17.9378 16.8244C17.9838 17.011 17.953 17.2079 17.852 17.372ZM19.295 14.2002C19.1632 14.4002 18.9585 14.5425 18.7234 14.5979C18.4882 14.6533 18.2404 14.6175 18.0312 14.4978C14.4452 12.525 10.2117 12.0366 6.26076 13.1398C6.13783 13.2075 6.00109 13.247 5.86063 13.2557C5.72011 13.2644 5.57945 13.242 5.44889 13.1901C5.31834 13.1382 5.20126 13.0581 5.10618 12.9558C5.0111 12.8534 4.94042 12.7314 4.89938 12.5986C4.85834 12.4658 4.84796 12.3257 4.86899 12.1884C4.89003 12.0511 4.94194 11.9203 5.02093 11.8054C5.09992 11.6905 5.20401 11.5945 5.32549 11.5244C5.44704 11.4544 5.58289 11.412 5.72314 11.4005C7.92841 10.7744 10.2383 10.5893 12.5171 10.8561C14.796 11.1228 16.9978 11.836 18.9932 12.9538C19.1959 13.0838 19.3402 13.2856 19.3964 13.5175C19.4526 13.7495 19.4163 13.9939 19.295 14.2002ZM19.4176 10.8982C15.645 8.66584 9.33543 8.4612 5.69488 9.54948C5.41473 9.6334 5.11223 9.60406 4.85401 9.46796C4.59578 9.33192 4.40294 9.10027 4.3179 8.82396C4.23286 8.54772 4.26256 8.24939 4.40054 7.99469C4.53845 7.74006 4.77336 7.54986 5.05352 7.46601C9.23169 6.2196 16.1637 6.46144 20.5494 9.01929C20.7748 9.17845 20.9313 9.41543 20.9877 9.68319C21.044 9.95088 20.9961 10.2297 20.8534 10.4642C20.7108 10.6987 20.4838 10.8716 20.2178 10.9485C19.9518 11.0256 19.666 11.0009 19.4176 10.8796V10.8982Z" fill="#1ED760"/>
<path d="M36.5768 10.372C34.3129 9.83248 33.9073 9.44188 33.9073 8.67916C33.9073 7.91643 34.6147 7.43275 35.6714 7.43275C36.8037 7.47461 37.8913 7.88326 38.7644 8.59544C38.7823 8.6044 38.8016 8.60905 38.8215 8.60905C38.8408 8.60905 38.8607 8.6044 38.8779 8.59544C38.915 8.5884 38.9487 8.56863 38.9721 8.53963L40.0851 6.99558C40.1071 6.96774 40.1195 6.93334 40.1195 6.89791C40.1195 6.86248 40.1071 6.82808 40.0851 6.80025C38.8579 5.80963 37.3131 5.28204 35.7278 5.312C33.2851 5.312 31.5781 6.76304 31.5781 8.82798C31.5781 11.051 33.0493 11.8416 35.5958 12.4462C37.7648 12.9392 38.1326 13.3764 38.1326 14.0926C38.1326 14.8087 37.3874 15.4133 36.2462 15.4133C34.8973 15.4042 33.6048 14.877 32.6437 13.9438C32.6073 13.9317 32.5674 13.9317 32.5303 13.9438C32.4918 13.9529 32.456 13.9722 32.4264 13.9996L31.1628 15.4412C31.1367 15.4689 31.1216 15.5055 31.1216 15.5436C31.1216 15.5817 31.1367 15.6182 31.1628 15.6459C32.5358 16.8588 34.3184 17.5222 36.1616 17.5062C38.7926 17.5062 40.5004 16.083 40.5004 13.888C40.4625 12.0555 39.3302 11.0324 36.5768 10.372Z" fill="black"/>
<path d="M46.4233 8.16755C45.8781 8.1642 45.3398 8.28409 44.8496 8.51786C44.3588 8.75163 43.9291 9.09319 43.5936 9.51627V8.4931C43.5915 8.45528 43.5743 8.41978 43.5462 8.39386C43.518 8.36794 43.4808 8.35351 43.443 8.35358H41.3964C41.3579 8.35351 41.3207 8.36794 41.2926 8.39386C41.2644 8.41978 41.2479 8.45528 41.2451 8.4931V19.8408C41.2451 19.8803 41.2609 19.9182 41.2891 19.9461C41.318 19.974 41.3558 19.9897 41.3964 19.9897H43.4238C43.4637 19.9897 43.5022 19.974 43.5303 19.9461C43.5585 19.9182 43.575 19.8803 43.575 19.8408V16.2784C43.9215 16.6837 44.3553 17.0083 44.8448 17.2285C45.3336 17.4489 45.8664 17.5596 46.4041 17.5527C48.5264 17.5527 50.6768 15.9436 50.6768 12.8555C50.6768 9.76741 48.5449 8.16755 46.4233 8.16755ZM48.3091 12.8182C48.3449 13.1509 48.3098 13.4871 48.2067 13.8057C48.1035 14.1243 47.9344 14.4183 47.7103 14.6692C47.4855 14.9201 47.2112 15.1223 46.9039 15.2633C46.5959 15.4041 46.2624 15.4806 45.9235 15.4878C45.5832 15.4774 45.2491 15.3992 44.9404 15.258C44.6317 15.1167 44.3553 14.9153 44.1285 14.6658C43.9009 14.4163 43.727 14.124 43.617 13.8065C43.5077 13.4889 43.4643 13.1528 43.4898 12.8182C43.4657 12.4845 43.5097 12.1494 43.6204 11.8329C43.7304 11.5165 43.9043 11.2253 44.1319 10.9768C44.3588 10.7284 44.6351 10.5278 44.9425 10.3871C45.2504 10.2464 45.5839 10.1685 45.9235 10.1581C46.2666 10.1639 46.6048 10.2401 46.9162 10.382C47.2277 10.5238 47.5061 10.7281 47.733 10.9819C47.9606 11.2357 48.1317 11.5333 48.2355 11.856C48.3394 12.1785 48.3744 12.5189 48.3373 12.8555L48.3091 12.8182Z" fill="black"/>
<path d="M56.2034 8.16746C55.2609 8.18408 54.3445 8.47558 53.5697 9.00515C52.7949 9.53479 52.1967 10.2788 51.8502 11.1433C51.5037 12.0078 51.4247 12.9543 51.6227 13.8631C51.8214 14.7719 52.2882 15.6025 52.964 16.2501C53.6405 16.8976 54.4964 17.3332 55.4231 17.5017C56.3499 17.6703 57.3069 17.5643 58.1731 17.1973C59.0387 16.8302 59.7757 16.2184 60.2892 15.439C60.8035 14.6597 61.0716 13.7478 61.0606 12.8182C61.0516 12.1981 60.9196 11.5857 60.6708 11.0162C60.4212 10.4467 60.061 9.9312 59.61 9.49923C59.159 9.06718 58.6255 8.7272 58.0411 8.49869C57.4567 8.27019 56.8318 8.15762 56.2034 8.16746ZM56.2034 15.5435C55.8549 15.539 55.5111 15.4651 55.1921 15.3261C54.8738 15.1872 54.5865 14.9861 54.3486 14.735C54.1107 14.4839 53.9272 14.188 53.8082 13.8649C53.6893 13.5419 53.6377 13.1985 53.657 12.8554C53.635 12.517 53.6838 12.1777 53.7993 11.8585C53.9155 11.5394 54.097 11.247 54.3321 10.9996C54.5672 10.7521 54.8512 10.5547 55.166 10.4195C55.4816 10.2844 55.8219 10.2144 56.1656 10.2138C56.5149 10.2159 56.8607 10.2877 57.1811 10.4249C57.5021 10.562 57.7916 10.7617 58.0322 11.0119C58.2721 11.2621 58.4591 11.5577 58.5808 11.8809C58.7025 12.2041 58.7568 12.5482 58.7403 12.8926C58.7623 13.2338 58.7128 13.5758 58.5952 13.8974C58.4777 14.2189 58.2941 14.5132 58.0562 14.7618C57.8177 15.0105 57.531 15.2081 57.212 15.3426C56.893 15.4771 56.5499 15.5454 56.2034 15.5435Z" fill="black"/>
<path d="M66.8987 8.35383H64.6637V6.10293C64.6637 6.06504 64.6492 6.02851 64.6224 6.00081C64.5963 5.97318 64.5605 5.9565 64.5221 5.9541H62.4939C62.4541 5.9541 62.4156 5.96976 62.3874 5.99767C62.3592 6.02557 62.3434 6.06346 62.3434 6.10293V8.35383H61.3438C61.3252 8.35383 61.3066 8.35746 61.2895 8.3645C61.2723 8.37148 61.2565 8.3818 61.2434 8.39473C61.2303 8.40766 61.22 8.42305 61.2131 8.44001C61.2056 8.4569 61.2021 8.47509 61.2021 8.49335V10.2141C61.2021 10.252 61.2166 10.2886 61.2427 10.3163C61.2695 10.3439 61.3053 10.3606 61.3438 10.363H62.287V14.809C62.287 16.6042 63.2296 17.5158 64.984 17.5158C65.644 17.5342 66.2965 17.3732 66.8705 17.0507C66.8932 17.0399 66.9131 17.0227 66.9262 17.0013C66.94 16.9798 66.9462 16.955 66.9462 16.9298V15.2927C66.9462 15.2674 66.9406 15.2423 66.929 15.2197C66.9173 15.197 66.9008 15.1774 66.8801 15.1625C66.8575 15.1485 66.8313 15.141 66.8045 15.141C66.7777 15.141 66.7516 15.1485 66.7289 15.1625C66.3604 15.3465 65.9534 15.4421 65.5402 15.4415C64.8899 15.4415 64.5977 15.1532 64.5977 14.5114V10.363H66.8327C66.8726 10.363 66.9111 10.3473 66.9393 10.3194C66.9675 10.2915 66.9833 10.2536 66.9833 10.2141V8.49335C66.9847 8.46449 66.9771 8.43597 66.962 8.41114C66.9468 8.38639 66.9248 8.36648 66.8987 8.35383Z" fill="black"/>
<path d="M74.6792 8.36333V8.08429C74.6792 7.26582 74.9906 6.90306 75.698 6.90306C76.0913 6.90751 76.4811 6.97994 76.8489 7.117C76.8695 7.12623 76.8922 7.13102 76.9149 7.13102C76.9376 7.13102 76.9602 7.12623 76.9809 7.117C76.9987 7.10257 77.0139 7.0841 77.0235 7.0631C77.0331 7.04211 77.0379 7.01919 77.0372 6.99608V5.29389C77.0386 5.26127 77.0297 5.22906 77.0111 5.20218C76.9919 5.1753 76.9651 5.15526 76.9334 5.14507C76.3828 5.0022 75.8142 4.93955 75.2456 4.95904C73.3592 4.95904 72.4159 6.00081 72.4159 7.96344V8.39124H71.4727C71.4356 8.39124 71.3991 8.40594 71.373 8.43214C71.3462 8.45833 71.3311 8.49376 71.3311 8.53076V10.2608C71.3311 10.2987 71.3455 10.3353 71.3723 10.363C71.3984 10.3906 71.4342 10.4073 71.4727 10.4097H72.4159V17.2741C72.4159 17.3111 72.431 17.3466 72.4572 17.3728C72.484 17.399 72.5197 17.4137 72.5576 17.4137H74.5472C74.5857 17.4137 74.6228 17.3993 74.651 17.3734C74.6792 17.3475 74.6957 17.312 74.6984 17.2741V10.3632H76.5849L79.4895 17.2183C79.1595 17.9439 78.8295 18.0834 78.3861 18.0834C77.9949 18.0729 77.6127 17.9674 77.2731 17.7764C77.2538 17.7673 77.2332 17.7626 77.2119 17.7626C77.1906 17.7626 77.1699 17.7673 77.1507 17.7764C77.1314 17.7818 77.1143 17.7913 77.0998 17.8041C77.0847 17.817 77.073 17.833 77.0654 17.8508L76.4336 19.3297C76.4199 19.3634 76.4192 19.4008 76.4309 19.4351C76.4433 19.4693 76.4673 19.498 76.4996 19.5157C77.1589 19.8886 77.909 20.0783 78.6687 20.0645C80.1592 20.0645 80.989 19.3762 81.7246 17.5253L85.2425 8.55867C85.2542 8.53719 85.2604 8.51325 85.2604 8.4889C85.2604 8.46462 85.2542 8.44069 85.2425 8.41914C85.228 8.40109 85.2095 8.38666 85.1882 8.37701C85.1669 8.3673 85.1435 8.36265 85.1201 8.36333H82.9511C82.9208 8.36525 82.8919 8.37482 82.8672 8.39117C82.8424 8.40745 82.8225 8.42995 82.8094 8.45635L80.6493 14.5488L78.3201 8.45635C78.3084 8.42865 78.2892 8.40492 78.2637 8.38837C78.2383 8.37175 78.2087 8.36306 78.1785 8.36333H74.6792Z" fill="black"/>
<path d="M70.1713 8.35388H68.1439C68.0607 8.35388 67.9927 8.4205 67.9927 8.50271V17.2274C67.9927 17.3096 68.0607 17.3762 68.1439 17.3762H70.1713C70.2552 17.3762 70.3226 17.3096 70.3226 17.2274V8.50271C70.3226 8.4205 70.2552 8.35388 70.1713 8.35388Z" fill="black"/>
<path d="M69.1625 4.3732C68.8729 4.37135 68.5889 4.4544 68.3476 4.61168C68.1055 4.76903 67.9171 4.99362 67.805 5.25694C67.6929 5.52032 67.6626 5.81053 67.7177 6.09088C67.7734 6.37123 67.9116 6.62907 68.1158 6.83171C68.3201 7.03427 68.5807 7.17253 68.864 7.22897C69.148 7.28535 69.4423 7.25736 69.7105 7.14852C69.978 7.03961 70.207 6.85476 70.368 6.61744C70.5296 6.38012 70.6155 6.10093 70.6155 5.81532C70.6162 5.62636 70.5798 5.43905 70.5076 5.26412C70.4347 5.08919 70.3281 4.93021 70.1933 4.79612C70.0578 4.6621 69.8976 4.55572 69.7209 4.48314C69.5434 4.41055 69.3543 4.3732 69.1625 4.3732Z" fill="black"/>
<path d="M86.9315 11.1542C86.7438 11.1554 86.5581 11.1199 86.3848 11.0498C86.2115 10.9796 86.0541 10.8761 85.9213 10.7455C85.7886 10.6147 85.6841 10.4594 85.6126 10.2884C85.5417 10.1174 85.506 9.9341 85.5074 9.74932C85.5074 9.37422 85.658 9.01451 85.9268 8.74928C86.1957 8.48411 86.5609 8.33511 86.9412 8.33511C87.1282 8.33388 87.3139 8.36939 87.4879 8.43951C87.6612 8.5097 87.8186 8.61314 87.9514 8.7438C88.0834 8.87454 88.1886 9.0299 88.2594 9.20093C88.331 9.37189 88.3667 9.55517 88.3653 9.74001C88.3653 10.115 88.2147 10.4748 87.9458 10.74C87.6763 11.0052 87.3118 11.1542 86.9315 11.1542ZM86.9315 8.47467C86.675 8.47283 86.424 8.54623 86.2102 8.68559C85.9963 8.82494 85.8292 9.02388 85.7302 9.25716C85.6311 9.49045 85.6043 9.74754 85.6538 9.99567C85.7033 10.2437 85.8271 10.4717 86.008 10.6506C86.1895 10.8294 86.4206 10.951 86.6723 10.9998C86.924 11.0487 87.1846 11.0227 87.4212 10.925C87.6577 10.8274 87.8592 10.6626 88.0009 10.4516C88.1418 10.2406 88.2161 9.99286 88.2147 9.74001C88.2161 9.57425 88.1838 9.40993 88.1205 9.25648C88.0566 9.10303 87.963 8.96347 87.8448 8.84581C87.7265 8.72821 87.5855 8.63482 87.4308 8.57113C87.2754 8.50744 87.1089 8.47467 86.9412 8.47467H86.9315ZM87.252 9.88881L87.6488 10.447H87.3091L86.9501 9.9354H86.6393V10.447H86.3463V8.96779H87.0168C87.3655 8.96779 87.6013 9.14456 87.6013 9.43298C87.6034 9.53519 87.5711 9.63528 87.5099 9.71764C87.4487 9.80008 87.3613 9.86021 87.2616 9.88881H87.252ZM87.0072 9.21899H86.6393V9.68419H87.0072C87.1956 9.68419 87.3091 9.60045 87.3091 9.45159C87.3091 9.30273 87.2052 9.21899 87.0168 9.21899H87.0072Z" fill="black"/>
</svg>
