<svg width="108" height="149" viewBox="0 0 108 149" fill="none" xmlns="http://www.w3.org/2000/svg">
<path d="M49.9866 92.578C49.5022 94.3656 49.0232 96.1335 48.5407 97.8697C48.3194 95.2645 48.051 92.5568 47.6118 89.8318L47.5992 89.7533L47.584 89.6752C45.9792 81.4606 41.4142 74.4829 33.3088 69.4024C32.7638 69.058 32.2137 68.7074 31.6575 68.3531C25.1771 64.2243 17.8835 59.5774 8.40459 57.9587C20.3122 55.8704 29.4957 51.4888 36.6238 45.3067C44.2206 38.7182 49.1771 30.3498 52.7278 21.3172L52.7326 21.305L52.7373 21.2928C53.5447 19.2054 54.1818 16.9773 54.7285 14.7954C54.6576 15.928 54.5867 17.0681 54.5158 18.2229L54.5151 18.2356L54.5143 18.2484C54.4351 19.6618 54.3233 21.1641 54.2078 22.716C53.9635 25.9979 53.7027 29.5014 53.6987 32.8553C53.3643 44.1344 62.7664 50.0769 71.0394 53.2851L71.0793 53.3006L71.1196 53.3154C72.4427 53.8015 73.8055 54.2395 75.2071 54.6163C74.4019 54.8253 73.6059 55.0429 72.8187 55.2649L72.7588 55.2818L72.6994 55.3002C69.4412 56.311 65.7721 58.3965 63.6042 61.314C63.5512 61.3776 63.4979 61.4414 63.4443 61.5055C60.6728 64.8248 57.2198 68.9602 55.5784 73.7757C53.4084 79.9504 51.6654 86.3828 49.9866 92.578ZM57.4222 4.70108C57.4222 4.70118 57.4195 4.70279 57.414 4.70565C57.4195 4.70242 57.4222 4.70099 57.4222 4.70108ZM55.3822 4.01364C55.3822 4.01354 55.3823 4.01567 55.3823 4.02015L55.3822 4.01364Z" stroke="#81ADC8" stroke-width="9.59797"/>
<path d="M86.6926 120.691C86.1081 122.355 85.5994 124.082 85.1258 125.784C84.2929 122.873 82.4693 120.391 79.5293 118.548C79.3197 118.416 79.1066 118.28 78.8899 118.142C77.2295 117.083 75.3539 115.886 73.1383 115.02C76.2273 114.069 78.787 112.64 80.9073 110.801C83.0722 108.923 84.6908 106.695 85.9455 104.292C85.9328 104.646 85.9252 104.998 85.9246 105.344C85.7964 109.882 89.2843 112.348 92.3315 113.681C91.4205 114.158 90.5364 114.822 89.9038 115.664C89.8791 115.694 89.8541 115.724 89.8289 115.754C88.7917 116.995 87.3762 118.689 86.6926 120.691ZM69.1664 113.713C69.1665 113.713 69.1683 113.716 69.1716 113.721C69.1679 113.715 69.1663 113.713 69.1664 113.713Z" stroke="#CD4631" stroke-width="5.48455"/>
<path d="M22.2189 133.467C23.2371 132.584 24.0632 131.581 24.7447 130.505C24.9732 132.801 26.6642 134.186 28.2794 135.012C27.8978 135.277 27.5429 135.597 27.2584 135.974C27.2421 135.994 27.2256 136.014 27.2089 136.034C26.5745 136.792 25.6605 137.885 25.2154 139.187C24.9749 139.872 24.7542 140.577 24.5469 141.283C23.9086 139.857 22.8454 138.63 21.3232 137.676C21.1932 137.593 21.0605 137.509 20.925 137.422C20.1212 136.909 19.2171 136.332 18.1824 135.841C19.7434 135.254 21.079 134.455 22.2189 133.467Z" stroke="black" stroke-width="4.11341"/>
</svg>
