<svg width="226" height="268" viewBox="0 0 226 268" fill="none" xmlns="http://www.w3.org/2000/svg">
<mask id="mask0_1207_9" style="mask-type:alpha" maskUnits="userSpaceOnUse" x="0" y="0" width="226" height="268">
<rect width="226" height="268" fill="#D9D9D9"/>
</mask>
<g mask="url(#mask0_1207_9)">
<path d="M-45.8377 -45.4458C-45.8377 -13.5627 -33.5077 40.1988 -80.0679 98.3162C-125.546 155.083 -62.9805 -24.6709 -0.145431 -35.7966C73.3047 -48.802 -53.2788 252.331 -59.8058 191.047C-63.4574 156.761 42.7868 -23.2002 72.6718 6.68475C110.689 44.7022 11.0005 261.854 -12.2771 258.282C-53.3421 251.982 93.5281 2.19795 135.202 23.7109C184.895 49.3637 102.987 220.554 64.9799 229.736C34.5743 237.082 147.978 71.1795 223.865 109.149" stroke="black" stroke-width="5.48455" stroke-linecap="round"/>
<path d="M205.134 95.8072C205.875 94.4809 207.903 95.1653 207.688 96.6695L207.293 99.4406C207.165 100.343 207.936 101.117 208.839 100.992L219.613 99.4981C221.066 99.2966 221.778 101.211 220.545 102.008L212.54 107.184C211.611 107.784 211.739 109.181 212.761 109.603L218.211 111.853C219.464 112.37 219.287 114.197 217.958 114.464L214.391 115.181C213.585 115.343 213.102 116.172 213.358 116.953L214.371 120.034C214.757 121.211 213.508 122.257 212.417 121.669L208.068 119.324C206.952 118.722 205.687 119.828 206.134 121.014L208.526 127.366C209.045 128.744 207.323 129.86 206.278 128.823L199.515 122.116C199.08 121.684 198.409 121.594 197.875 121.896L190.252 126.209C188.982 126.928 187.617 125.428 188.452 124.231L192.942 117.796C193.352 117.207 193.239 116.401 192.683 115.948L184.855 109.576C183.855 108.762 184.431 107.142 185.721 107.142H191.751C192.433 107.142 193.011 106.641 193.108 105.966L194.054 99.4106C194.258 97.9926 196.226 97.7987 196.704 99.1496L198.235 103.485C198.628 104.598 200.15 104.727 200.725 103.697L205.134 95.8072Z" fill="#CD4631"/>
</g>
</svg>
